# Blender 5.0.1
# www.blender.org
mtllib 3d_hat.mtl
o OutSideRing.006
v -0.000000 0.000000 -0.147969
v 0.003561 0.000000 -0.147619
v 0.006984 0.000000 -0.146580
v 0.010140 0.000000 -0.144894
v 0.012905 0.000000 -0.142624
v 0.015175 0.000000 -0.139858
v 0.016862 0.000000 -0.136703
v 0.017900 0.000000 -0.133279
v 0.018251 0.000000 -0.129719
v 0.017900 0.000000 -0.126158
v 0.016862 0.000000 -0.122735
v 0.015175 0.000000 -0.119579
v 0.012905 0.000000 -0.116814
v 0.010140 0.000000 -0.114544
v 0.006984 0.000000 -0.112858
v 0.003561 0.000000 -0.111819
v -0.000000 0.000000 -0.111468
v -0.003561 0.000000 -0.111819
v -0.006984 0.000000 -0.112858
v -0.010140 0.000000 -0.114544
v -0.012905 0.000000 -0.116814
v -0.015175 0.000000 -0.119579
v -0.016862 0.000000 -0.122735
v -0.017900 0.000000 -0.126158
v -0.018251 0.000000 -0.129719
v -0.017900 0.000000 -0.133279
v -0.016862 0.000000 -0.136703
v -0.015175 0.000000 -0.139858
v -0.012905 0.000000 -0.142624
v -0.010140 0.000000 -0.144894
v -0.006984 0.000000 -0.146580
v -0.003561 0.000000 -0.147619
v -0.013389 0.000000 -0.138665
v -0.008946 0.000000 -0.143108
v -0.011386 0.000000 -0.141105
v -0.003142 0.000000 -0.145512
v 0.003142 0.000000 -0.145512
v -0.000000 0.000000 -0.145821
v -0.006162 0.000000 -0.144596
v -0.016103 0.000000 -0.129719
v -0.015793 0.000000 -0.132860
v -0.015793 0.000000 -0.126577
v -0.013389 0.000000 -0.120773
v -0.008946 0.000000 -0.116330
v -0.011386 0.000000 -0.118333
v -0.014877 0.000000 -0.123557
v -0.003142 0.000000 -0.113926
v 0.003142 0.000000 -0.113926
v -0.000000 0.000000 -0.113616
v 0.008946 0.000000 -0.116330
v 0.013389 0.000000 -0.120773
v 0.011386 0.000000 -0.118333
v 0.006162 0.000000 -0.114842
v 0.008946 0.000000 -0.143108
v 0.013389 0.000000 -0.138665
v 0.011386 0.000000 -0.141105
v 0.016103 0.000000 -0.129719
v 0.015793 0.000000 -0.126577
v 0.015793 0.000000 -0.132860
v 0.014877 0.000000 -0.135881
v -0.014877 0.000000 -0.135881
v -0.006162 0.000000 -0.114842
v 0.006162 0.000000 -0.144596
v 0.014877 0.000000 -0.123557
v -0.000870 0.000000 -0.149542
v 0.004721 0.000000 -0.148991
v 0.006782 0.000000 -0.148366
v 0.011737 0.000000 -0.145718
v 0.013402 0.000000 -0.144351
v 0.016966 0.000000 -0.140009
v 0.017981 0.000000 -0.138108
v 0.019612 0.000000 -0.132733
v 0.019823 0.000000 -0.130589
v 0.019273 0.000000 -0.124998
v 0.018647 0.000000 -0.122937
v 0.015999 0.000000 -0.117982
v 0.014632 0.000000 -0.116317
v 0.010290 0.000000 -0.112753
v 0.008390 0.000000 -0.111738
v 0.003014 0.000000 -0.110107
v 0.000870 0.000000 -0.109896
v -0.004721 0.000000 -0.110447
v -0.006782 0.000000 -0.111072
v -0.011737 0.000000 -0.113720
v -0.013402 0.000000 -0.115087
v -0.016966 0.000000 -0.119429
v -0.017981 0.000000 -0.121329
v -0.019612 0.000000 -0.126705
v -0.019823 0.000000 -0.128849
v -0.019273 0.000000 -0.134439
v -0.018647 0.000000 -0.136501
v -0.015999 0.000000 -0.141455
v -0.014632 0.000000 -0.143121
v -0.010290 0.000000 -0.146684
v -0.008390 0.000000 -0.147700
v -0.003014 0.000000 -0.149331
v -0.007766 0.000000 -0.117240
v -0.006062 0.000000 -0.116329
v -0.011950 0.000000 -0.121161
v -0.010725 0.000000 -0.119668
v -0.014315 0.000000 -0.126386
v -0.013755 0.000000 -0.124537
v -0.014691 0.000000 -0.130195
v -0.014501 0.000000 -0.132118
v -0.012479 0.000000 -0.137484
v -0.013390 0.000000 -0.135781
v -0.008558 0.000000 -0.141669
v -0.010051 0.000000 -0.140443
v -0.003333 0.000000 -0.144034
v -0.005182 0.000000 -0.143473
v 0.002399 0.000000 -0.144220
v 0.000476 0.000000 -0.144409
v 0.007766 0.000000 -0.142198
v 0.006062 0.000000 -0.143109
v 0.011950 0.000000 -0.138276
v 0.010725 0.000000 -0.139770
v 0.014315 0.000000 -0.133052
v 0.013755 0.000000 -0.134900
v 0.014691 0.000000 -0.129242
v 0.014501 0.000000 -0.127320
v 0.012479 0.000000 -0.121953
v 0.013390 0.000000 -0.123657
v 0.008558 0.000000 -0.117769
v 0.010051 0.000000 -0.118994
v 0.003333 0.000000 -0.115404
v 0.005182 0.000000 -0.115965
v -0.002399 0.000000 -0.115218
v -0.000476 0.000000 -0.115029
vn -0.0000 1.0000 -0.0000
vt 0.679332 0.784244
vt 0.682446 0.801179
vt 0.665281 0.812649
vt 0.650826 0.803291
vt 0.619152 0.816411
vt 0.615549 0.833249
vt 0.595300 0.837276
vt 0.585527 0.823099
vt 0.551244 0.823099
vt 0.541471 0.837276
vt 0.521223 0.833249
vt 0.517619 0.816411
vt 0.485945 0.803291
vt 0.471491 0.812649
vt 0.454325 0.801179
vt 0.457439 0.784244
vt 0.433197 0.760002
vt 0.416262 0.763116
vt 0.404792 0.745951
vt 0.414150 0.731496
vt 0.401031 0.699822
vt 0.384193 0.696219
vt 0.380165 0.675970
vt 0.394342 0.666197
vt 0.394342 0.631914
vt 0.380165 0.622141
vt 0.384193 0.601893
vt 0.401031 0.598289
vt 0.414150 0.566615
vt 0.404792 0.552161
vt 0.416262 0.534995
vt 0.433197 0.538109
vt 0.457439 0.513867
vt 0.454325 0.496932
vt 0.471491 0.485462
vt 0.485945 0.494820
vt 0.517619 0.481701
vt 0.521223 0.464862
vt 0.541471 0.460835
vt 0.551244 0.475012
vt 0.585527 0.475012
vt 0.595300 0.460835
vt 0.615548 0.464862
vt 0.619152 0.481701
vt 0.650826 0.494820
vt 0.665281 0.485462
vt 0.682446 0.496932
vt 0.679332 0.513867
vt 0.703574 0.538109
vt 0.720509 0.534995
vt 0.731979 0.552161
vt 0.722621 0.566615
vt 0.735741 0.598289
vt 0.716042 0.604264
vt 0.701768 0.603824
vt 0.694685 0.586723
vt 0.704467 0.576319
vt 0.687662 0.551168
vt 0.674306 0.556224
vt 0.661217 0.543135
vt 0.666273 0.529779
vt 0.641123 0.512974
vt 0.630718 0.522756
vt 0.613617 0.515673
vt 0.613177 0.501399
vt 0.583510 0.495498
vt 0.577641 0.508517
vt 0.559130 0.508517
vt 0.553261 0.495498
vt 0.523594 0.501399
vt 0.523154 0.515673
vt 0.506053 0.522756
vt 0.495649 0.512974
vt 0.470498 0.529779
vt 0.475554 0.543135
vt 0.462465 0.556224
vt 0.449109 0.551168
vt 0.432304 0.576319
vt 0.442086 0.586723
vt 0.435003 0.603824
vt 0.420729 0.604264
vt 0.414828 0.633932
vt 0.427847 0.639800
vt 0.427847 0.658311
vt 0.414828 0.664180
vt 0.420729 0.693847
vt 0.435003 0.694287
vt 0.442086 0.711388
vt 0.432304 0.721793
vt 0.449109 0.746943
vt 0.462465 0.741887
vt 0.475554 0.754976
vt 0.470498 0.768332
vt 0.495649 0.785137
vt 0.506053 0.775355
vt 0.523154 0.782438
vt 0.523594 0.796713
vt 0.553262 0.802614
vt 0.559131 0.789595
vt 0.577641 0.789595
vt 0.583510 0.802614
vt 0.613177 0.796712
vt 0.613617 0.782438
vt 0.630718 0.775355
vt 0.641123 0.785137
vt 0.666273 0.768332
vt 0.661217 0.754976
vt 0.674306 0.741887
vt 0.687662 0.746943
vt 0.704467 0.721793
vt 0.722621 0.731496
vt 0.731979 0.745951
vt 0.720509 0.763116
vt 0.703574 0.760002
vt 0.742429 0.666197
vt 0.756606 0.675970
vt 0.752579 0.696218
vt 0.735741 0.699822
vt 0.694685 0.711388
vt 0.701768 0.694287
vt 0.716043 0.693847
vt 0.721944 0.664180
vt 0.708925 0.658311
vt 0.708925 0.639800
vt 0.721944 0.633931
vt 0.752579 0.601893
vt 0.756606 0.622141
vt 0.742429 0.631914
s 0
usemtl DarkBeige
f 13/1/1 77/2/1 76/3/1 12/4/1 11/5/1 75/6/1 74/7/1 10/8/1 9/9/1 73/10/1 72/11/1 8/12/1 7/13/1 71/14/1 70/15/1 6/16/1 5/17/1 69/18/1 68/19/1 4/20/1 3/21/1 67/22/1 66/23/1 2/24/1 1/25/1 65/26/1 96/27/1 32/28/1 31/29/1 95/30/1 94/31/1 30/32/1 29/33/1 93/34/1 92/35/1 28/36/1 27/37/1 91/38/1 90/39/1 26/40/1 25/41/1 89/42/1 88/43/1 24/44/1 23/45/1 87/46/1 86/47/1 22/48/1 21/49/1 85/50/1 84/51/1 20/52/1 19/53/1 62/54/1 98/55/1 97/56/1 44/57/1 45/58/1 100/59/1 99/60/1 43/61/1 46/62/1 102/63/1 101/64/1 42/65/1 40/66/1 103/67/1 104/68/1 41/69/1 61/70/1 106/71/1 105/72/1 33/73/1 35/74/1 108/75/1 107/76/1 34/77/1 39/78/1 110/79/1 109/80/1 36/81/1 38/82/1 112/83/1 111/84/1 37/85/1 63/86/1 114/87/1 113/88/1 54/89/1 56/90/1 116/91/1 115/92/1 55/93/1 60/94/1 118/95/1 117/96/1 59/97/1 57/98/1 119/99/1 120/100/1 58/101/1 64/102/1 122/103/1 121/104/1 51/105/1 52/106/1 124/107/1 123/108/1 50/109/1 53/110/1 15/111/1 79/112/1 78/113/1 14/114/1
f 17/115/1 81/116/1 80/117/1 16/118/1 15/111/1 53/110/1 126/119/1 125/120/1 48/121/1 49/122/1 128/123/1 127/124/1 47/125/1 62/54/1 19/53/1 83/126/1 82/127/1 18/128/1
o Hat
v 0.009735 0.040322 -0.005436
v 0.009678 0.075019 -0.005436
v 0.018762 0.040337 0.010199
v 0.018704 0.075034 0.010199
v 0.009735 0.040322 0.025834
v 0.009678 0.075019 0.025834
v -0.008319 0.040292 0.025834
v -0.008376 0.074989 0.025834
v -0.017346 0.040277 0.010199
v -0.017403 0.074975 0.010199
v -0.008319 0.040292 -0.005436
v -0.008376 0.074989 -0.005436
v 0.008369 0.053967 -0.003110
v 0.016053 0.053979 0.010199
v 0.008369 0.053967 0.023507
v -0.006998 0.053941 0.023507
v -0.014682 0.053929 0.010199
v -0.006998 0.053941 -0.003110
v 0.009744 0.034900 -0.005436
v 0.018770 0.034915 0.010199
v 0.009744 0.034900 0.025834
v -0.008310 0.034871 0.025834
v -0.017337 0.034856 0.010199
v -0.008310 0.034871 -0.005436
v 0.014283 0.040329 -0.015717
v 0.027857 0.040352 0.010199
v 0.014283 0.040329 0.036115
v -0.012867 0.040285 0.036115
v -0.026441 0.040262 0.010199
v -0.012867 0.040285 -0.015717
v 0.014292 0.034908 -0.015717
v 0.027866 0.034930 0.010199
v 0.014292 0.034908 0.036115
v -0.012858 0.034863 0.036115
v -0.026432 0.034841 0.010199
v -0.012858 0.034863 -0.015717
vn -0.0016 1.0000 -0.0000
vn -0.0003 0.1680 -0.9858
vn -0.8540 0.1666 -0.4929
vn -0.8540 0.1666 0.4929
vn -0.0003 0.1680 0.9858
vn 0.8534 0.1694 0.4929
vn 0.8534 0.1694 -0.4929
vn -0.8606 -0.1113 0.4970
vn 0.8610 -0.1084 0.4970
vn 0.8610 -0.1084 -0.4970
vn 0.0002 -0.1098 -0.9939
vn -0.8606 -0.1113 -0.4970
vn 0.0002 -0.1098 0.9939
vn 0.0016 -1.0000 -0.0000
vn -0.8858 -0.0015 0.4640
vn 0.8858 0.0015 0.4640
vn -0.8858 -0.0015 -0.4640
vn 0.8858 0.0015 -0.4640
vn -0.0000 -0.0000 1.0000
vn -0.0000 -0.0000 -1.0000
vt 0.340850 0.542574
vt 0.356216 0.521486
vt 0.380502 0.524098
vt 0.388075 0.548657
vt 0.374655 0.570440
vt 0.350460 0.566810
vt 0.289284 0.635290
vt 0.400484 0.650984
vt 0.417913 0.722739
vt 0.248822 0.697324
vt 0.441023 0.460693
vt 0.411123 0.494830
vt 0.344305 0.478774
vt 0.331461 0.436199
vt 0.479400 0.569029
vt 0.429961 0.558797
vt 0.386554 0.611284
vt 0.319568 0.597846
vt 0.245245 0.520769
vt 0.298018 0.531639
vt 0.000184 0.471109
vt 0.196529 0.000184
vt 0.308888 0.328268
vt 0.156105 0.502706
vt 0.187246 0.508372
vt 0.318409 0.357487
vt 0.532072 0.580218
vt 0.667784 0.606904
vt 0.526131 0.931378
vt 0.428529 0.748747
vt 0.559714 0.585247
vt 0.482083 0.406436
vt 0.229832 0.721340
vt 0.500830 0.386015
vt 0.660913 0.256133
vt 0.000184 0.974847
s 0
usemtl OpaqueBlack
f 132/129/2 130/130/2 140/131/2 138/132/2 136/133/2 134/134/2
f 133/135/2 135/136/2 156/137/2 155/138/2
f 139/139/3 146/140/3 141/141/3 129/142/3
f 137/143/4 145/144/4 146/140/4 139/139/4
f 135/136/5 144/145/5 145/144/5 137/143/5
f 133/135/6 143/146/6 144/145/6 135/136/6
f 131/147/7 142/148/7 143/146/7 133/135/7
f 129/142/8 141/141/8 142/148/8 131/147/8
f 138/132/9 145/144/9 144/145/9 136/133/9
f 134/134/10 143/146/10 142/148/10 132/129/10
f 132/129/11 142/148/11 141/141/11 130/130/11
f 130/130/12 141/141/12 146/140/12 140/131/12
f 140/131/13 146/140/13 145/144/13 138/132/13
f 136/133/14 144/145/14 143/146/14 134/134/14
f 148/149/15 147/150/15 159/151/15 160/152/15
f 129/142/2 131/147/2 154/153/2 153/154/2
f 135/136/2 137/143/2 157/155/2 156/137/2
f 151/156/15 150/157/15 162/158/15 163/159/15
f 137/143/2 139/139/2 158/160/2 157/155/2
f 156/137/16 157/155/16 163/159/16 162/158/16
f 154/153/17 155/138/17 161/161/17 160/152/17
f 157/155/18 158/160/18 164/162/18 163/159/18
f 153/154/19 154/153/19 160/152/19 159/151/19
f 155/138/20 156/137/20 162/158/20 161/161/20
f 158/160/21 153/154/21 159/151/21 164/162/21
f 152/163/15 151/156/15 163/159/15 164/162/15
f 131/147/2 133/135/2 155/138/2 154/153/2
f 149/164/15 148/149/15 160/152/15 161/161/15
f 147/150/15 152/163/15 164/162/15 159/151/15
f 150/157/15 149/164/15 161/161/15 162/158/15
f 139/139/2 129/142/2 153/154/2 158/160/2
o GearSmall.007
v -0.001142 0.000000 -0.103523
v -0.001736 0.000000 -0.103166
v -0.002092 0.000000 -0.103438
v -0.002616 0.000000 -0.102919
v -0.002374 0.000000 -0.102576
v -0.002724 0.000000 -0.101989
v -0.003141 0.000000 -0.102029
v -0.003339 0.000000 -0.101351
v -0.002958 0.000000 -0.101142
v -0.002963 0.000000 -0.100475
v -0.003353 0.000000 -0.100274
v -0.003198 0.000000 -0.099588
v -0.002724 0.000000 -0.099603
v -0.002398 0.000000 -0.099018
v -0.002670 0.000000 -0.098670
v -0.002142 0.000000 -0.098177
v -0.001768 0.000000 -0.098403
v -0.001204 0.000000 -0.098070
v -0.001269 0.000000 -0.097653
v -0.000590 0.000000 -0.097439
v -0.000374 0.000000 -0.097796
v 0.000277 0.000000 -0.097799
v 0.000340 0.000000 -0.097896
v 0.000430 0.000000 -0.097450
v 0.001192 0.000000 -0.097596
v 0.001153 0.000000 -0.098046
v 0.001739 0.000000 -0.098388
v 0.002095 0.000000 -0.098132
v 0.002611 0.000000 -0.098635
v 0.002361 0.000000 -0.098946
v 0.002719 0.000000 -0.099573
v 0.003143 0.000000 -0.099516
v 0.003334 0.000000 -0.100220
v 0.002937 0.000000 -0.100428
v 0.002942 0.000000 -0.101079
v 0.003356 0.000000 -0.101304
v 0.003168 0.000000 -0.101950
v 0.002743 0.000000 -0.101951
v 0.002425 0.000000 -0.102519
v 0.002689 0.000000 -0.102884
v 0.002121 0.000000 -0.103409
v 0.001819 0.000000 -0.103166
v 0.001215 0.000000 -0.103476
v 0.001272 0.000000 -0.103917
v 0.000570 0.000000 -0.104140
v 0.000384 0.000000 -0.103726
v -0.000266 0.000000 -0.103723
v -0.000325 0.000000 -0.103625
v -0.000475 0.000000 -0.104121
v -0.001170 0.000000 -0.103934
v -0.000248 0.000000 -0.101432
v -0.000366 0.000000 -0.101372
v -0.000632 0.000000 -0.100556
v -0.000668 0.000000 -0.100684
v -0.000121 0.000000 -0.101468
v -0.000490 0.000000 -0.100334
v 0.000553 0.000000 -0.100415
v 0.000618 0.000000 -0.100531
v -0.000389 0.000000 -0.100247
v 0.000659 0.000000 -0.100657
v 0.000628 0.000000 -0.101048
v 0.000012 0.000000 -0.101479
v -0.000622 0.000000 -0.101074
v 0.000568 0.000000 -0.101167
v 0.000116 0.000000 -0.100136
v 0.000467 0.000000 -0.100314
v 0.000244 0.000000 -0.100172
v -0.000016 0.000000 -0.100126
v -0.000471 0.000000 -0.101290
v -0.000557 0.000000 -0.101189
v 0.000674 0.000000 -0.100789
v -0.000678 0.000000 -0.100816
v -0.000147 0.000000 -0.100141
v -0.000572 0.000000 -0.100438
v -0.000274 0.000000 -0.100183
v 0.000269 0.000000 -0.101422
v 0.000385 0.000000 -0.101357
v 0.000143 0.000000 -0.101463
v 0.000486 0.000000 -0.101271
v 0.000664 0.000000 -0.100921
v 0.000362 0.000000 -0.100232
v -0.000663 0.000000 -0.100948
vn -0.0000 1.0000 -0.0000
vt 0.814456 0.495483
vt 0.836704 0.483663
vt 0.834873 0.467473
vt 0.860881 0.460835
vt 0.867024 0.474783
vt 0.891867 0.474880
vt 0.898399 0.461125
vt 0.923272 0.467632
vt 0.922641 0.483421
vt 0.943525 0.495718
vt 0.957077 0.487329
vt 0.975565 0.504984
vt 0.966244 0.519497
vt 0.978392 0.540585
vt 0.994328 0.538609
vt 0.999807 0.564291
vt 0.985785 0.571737
vt 0.985617 0.595530
vt 0.999807 0.601302
vt 0.993807 0.626465
vt 0.978633 0.626523
vt 0.966373 0.646755
vt 0.962161 0.646903
vt 0.899307 0.594128
vt 0.901282 0.589729
vt 0.902360 0.585030
vt 0.902501 0.580211
vt 0.901699 0.575458
vt 0.899985 0.570951
vt 0.897425 0.566866
vt 0.894117 0.563359
vt 0.890189 0.560564
vt 0.885791 0.558590
vt 0.881092 0.557511
vt 0.876273 0.557371
vt 0.871519 0.558172
vt 0.867013 0.559886
vt 0.862927 0.562446
vt 0.859420 0.565754
vt 0.856626 0.569683
vt 0.795997 0.519050
vt 0.791872 0.519055
vt 0.783375 0.505104
vt 0.802188 0.486943
vt 0.974366 0.658061
vt 0.955586 0.679102
vt 0.942268 0.669456
vt 0.920673 0.681313
vt 0.921997 0.697212
vt 0.896641 0.703887
vt 0.891656 0.690266
vt 0.865401 0.689697
vt 0.859231 0.703996
vt 0.833743 0.696800
vt 0.834664 0.680504
vt 0.814287 0.668498
vt 0.799540 0.677211
vt 0.782898 0.659268
vt 0.790842 0.645985
vt 0.779057 0.625440
vt 0.762759 0.626873
vt 0.756991 0.599344
vt 0.770214 0.594468
vt 0.771868 0.569844
vt 0.757063 0.563383
vt 0.763245 0.537315
vt 0.779612 0.539286
vt 0.854651 0.574081
vt 0.853573 0.578780
vt 0.853432 0.583599
vt 0.854234 0.588353
vt 0.855948 0.592859
vt 0.858508 0.596944
vt 0.861816 0.600451
vt 0.865744 0.603246
vt 0.870142 0.605220
vt 0.874841 0.606299
vt 0.879660 0.606440
vt 0.884414 0.605638
vt 0.888920 0.603924
vt 0.893005 0.601364
vt 0.896513 0.598056
s 1
usemtl PaleWhite.001
f 165/165/22 166/166/22 167/167/22 168/168/22 169/169/22 170/170/22 171/171/22 172/172/22 173/173/22 174/174/22 175/175/22 176/176/22 177/177/22 178/178/22 179/179/22 180/180/22 181/181/22 182/182/22 183/183/22 184/184/22 185/185/22 186/186/22 187/187/22 232/188/22 237/189/22 239/190/22 223/191/22 220/192/22 238/193/22 217/194/22 218/195/22 236/196/22 246/197/22 227/198/22 234/199/22 233/200/22 216/201/22 215/202/22 219/203/22 226/204/22 212/205/22 211/206/22 213/207/22 214/208/22
f 186/186/22 188/209/22 189/210/22 190/211/22 191/212/22 192/213/22 193/214/22 194/215/22 195/216/22 196/217/22 197/218/22 198/219/22 199/220/22 200/221/22 201/222/22 202/223/22 203/224/22 204/225/22 205/226/22 206/227/22 207/228/22 208/229/22 209/230/22 210/231/22 211/206/22 212/205/22 226/204/22 242/232/22 240/233/22 241/234/22 243/235/22 228/236/22 225/237/22 244/238/22 235/239/22 224/240/22 222/241/22 221/242/22 230/243/22 245/244/22 231/245/22 229/246/22 232/188/22 187/187/22
o GearSimple.009
v 0.002310 -0.000000 -0.041880
v 0.002291 -0.000000 -0.041578
v 0.002232 0.000000 -0.041281
v 0.002135 -0.000000 -0.040994
v 0.002971 -0.000000 -0.041880
v 0.002945 0.000000 -0.041492
v 0.002744 0.000000 -0.040741
v 0.003272 0.000000 -0.041449
v 0.003049 0.000000 -0.040615
v 0.003582 0.000000 -0.041286
v 0.003507 -0.000000 -0.040939
v 0.003398 0.000000 -0.040600
v 0.002001 0.000000 -0.040723
v 0.001833 0.000000 -0.040471
v 0.001634 -0.000000 -0.040243
v 0.001406 -0.000000 -0.040044
v 0.002573 -0.000000 -0.040392
v 0.002357 -0.000000 -0.040068
v 0.001808 -0.000000 -0.039519
v 0.002619 0.000000 -0.039867
v 0.002009 0.000000 -0.039256
v 0.002806 -0.000000 -0.039571
v 0.002567 -0.000000 -0.039308
v 0.002304 0.000000 -0.039069
v 0.001155 0.000000 -0.039875
v 0.000884 0.000000 -0.039741
v 0.000598 -0.000000 -0.039644
v 0.000302 -0.000000 -0.039585
v 0.001485 -0.000000 -0.039302
v 0.001137 0.000000 -0.039130
v 0.000388 0.000000 -0.038929
v 0.001263 -0.000000 -0.038825
v 0.000431 -0.000000 -0.038601
v 0.001278 0.000000 -0.038475
v 0.000940 0.000000 -0.038366
v 0.000593 0.000000 -0.038291
v 0.000000 -0.000000 -0.039565
v -0.000302 -0.000000 -0.039585
v -0.000598 -0.000000 -0.039644
v -0.000884 0.000000 -0.039741
v 0.000000 -0.000000 -0.038904
v -0.000388 0.000000 -0.038929
v -0.001137 0.000000 -0.039130
v -0.000431 -0.000000 -0.038601
v -0.001263 -0.000000 -0.038825
v -0.000593 0.000000 -0.038291
v -0.000940 0.000000 -0.038366
v -0.001278 0.000000 -0.038475
v -0.001155 0.000000 -0.039875
v -0.001406 -0.000000 -0.040044
v -0.001634 -0.000000 -0.040243
v -0.001833 0.000000 -0.040471
v -0.001485 -0.000000 -0.039302
v -0.001808 -0.000000 -0.039519
v -0.002357 -0.000000 -0.040068
v -0.002009 0.000000 -0.039256
v -0.002619 0.000000 -0.039867
v -0.002304 0.000000 -0.039069
v -0.002567 -0.000000 -0.039308
v -0.002806 -0.000000 -0.039571
v -0.002001 0.000000 -0.040723
v -0.002135 -0.000000 -0.040994
v -0.002232 0.000000 -0.041281
v -0.002291 -0.000000 -0.041578
v -0.002573 -0.000000 -0.040392
v -0.002744 0.000000 -0.040741
v -0.002945 0.000000 -0.041492
v -0.003049 0.000000 -0.040615
v -0.003272 0.000000 -0.041449
v -0.003398 0.000000 -0.040600
v -0.003507 -0.000000 -0.040939
v -0.003582 0.000000 -0.041286
v -0.002310 -0.000000 -0.041880
v -0.002291 0.000000 -0.042183
v -0.002232 -0.000000 -0.042480
v -0.002135 0.000000 -0.042766
v -0.002971 -0.000000 -0.041880
v -0.002945 -0.000000 -0.042269
v -0.002744 -0.000000 -0.043020
v -0.003272 -0.000000 -0.042312
v -0.003049 -0.000000 -0.043146
v -0.003582 -0.000000 -0.042474
v -0.003507 0.000000 -0.042822
v -0.003398 -0.000000 -0.043161
v -0.002001 -0.000000 -0.043038
v -0.001833 -0.000000 -0.043290
v -0.001634 0.000000 -0.043518
v -0.001406 0.000000 -0.043717
v -0.002573 0.000000 -0.043369
v -0.002357 0.000000 -0.043693
v -0.001808 0.000000 -0.044242
v -0.002619 -0.000000 -0.043894
v -0.002009 -0.000000 -0.044504
v -0.002806 0.000000 -0.044189
v -0.002567 0.000000 -0.044453
v -0.002304 -0.000000 -0.044692
v -0.001155 -0.000000 -0.043885
v -0.000884 -0.000000 -0.044019
v -0.000598 0.000000 -0.044117
v -0.000302 0.000000 -0.044176
v -0.001485 0.000000 -0.044458
v -0.001137 -0.000000 -0.044631
v -0.000388 -0.000000 -0.044832
v -0.001263 0.000000 -0.044936
v -0.000431 0.000000 -0.045160
v -0.001278 -0.000000 -0.045286
v -0.000940 -0.000000 -0.045395
v -0.000593 -0.000000 -0.045470
v 0.000000 0.000000 -0.044196
v 0.000302 0.000000 -0.044176
v 0.000598 0.000000 -0.044117
v 0.000884 -0.000000 -0.044019
v 0.000000 0.000000 -0.044857
v 0.000388 -0.000000 -0.044832
v 0.001137 -0.000000 -0.044631
v 0.000431 0.000000 -0.045160
v 0.001263 0.000000 -0.044936
v 0.000593 -0.000000 -0.045470
v 0.000940 -0.000000 -0.045395
v 0.001278 -0.000000 -0.045286
v 0.001155 -0.000000 -0.043885
v 0.001406 0.000000 -0.043717
v 0.001634 0.000000 -0.043518
v 0.001833 -0.000000 -0.043290
v 0.001485 0.000000 -0.044458
v 0.001808 0.000000 -0.044242
v 0.002357 0.000000 -0.043693
v 0.002009 -0.000000 -0.044504
v 0.002619 -0.000000 -0.043894
v 0.002304 -0.000000 -0.044692
v 0.002567 0.000000 -0.044453
v 0.002806 0.000000 -0.044189
v 0.002001 -0.000000 -0.043038
v 0.002135 0.000000 -0.042766
v 0.002232 -0.000000 -0.042480
v 0.002291 0.000000 -0.042183
v 0.002573 0.000000 -0.043369
v 0.002744 -0.000000 -0.043020
v 0.002945 -0.000000 -0.042269
v 0.003049 -0.000000 -0.043146
v 0.003272 -0.000000 -0.042312
v 0.003398 -0.000000 -0.043161
v 0.003507 0.000000 -0.042822
v 0.003582 -0.000000 -0.042474
vn -0.0000 1.0000 -0.0000
vt 0.326296 0.571930
vt 0.296005 0.589418
vt 0.287108 0.576104
vt 0.314857 0.554811
vt 0.251196 0.544610
vt 0.236834 0.537527
vt 0.221671 0.532380
vt 0.205965 0.529256
vt 0.189986 0.528209
vt 0.174007 0.529256
vt 0.158301 0.532380
vt 0.143138 0.537527
vt 0.128776 0.544610
vt 0.115462 0.553506
vt 0.103422 0.564065
vt 0.092864 0.576104
vt 0.083967 0.589419
vt 0.076885 0.603781
vt 0.071738 0.618944
vt 0.068614 0.634650
vt 0.067566 0.650629
vt 0.068614 0.666608
vt 0.071738 0.682313
vt 0.076885 0.697477
vt 0.083968 0.711839
vt 0.053677 0.729327
vt 0.044570 0.710862
vt 0.028413 0.717555
vt 0.009918 0.718329
vt 0.004167 0.700419
vt 0.000193 0.682032
vt 0.016597 0.673456
vt 0.033936 0.671173
vt 0.032589 0.650629
vt 0.033936 0.630084
vt 0.016597 0.627802
vt 0.000193 0.619225
vt 0.004167 0.600839
vt 0.009918 0.582928
vt 0.028413 0.583703
vt 0.044570 0.590395
vt 0.053676 0.571930
vt 0.065115 0.554811
vt 0.051240 0.544165
vt 0.041322 0.528536
vt 0.053957 0.514600
vt 0.067893 0.501964
vt 0.083522 0.511883
vt 0.094169 0.525757
vt 0.111288 0.514319
vt 0.129753 0.505213
vt 0.123060 0.489055
vt 0.122285 0.470561
vt 0.140196 0.464810
vt 0.158582 0.460835
vt 0.167159 0.477239
vt 0.169442 0.494578
vt 0.189986 0.493231
vt 0.210530 0.494578
vt 0.212813 0.477239
vt 0.221390 0.460835
vt 0.239776 0.464809
vt 0.257687 0.470561
vt 0.256912 0.489055
vt 0.250219 0.505213
vt 0.268685 0.514319
vt 0.285803 0.525757
vt 0.296450 0.511882
vt 0.312079 0.501964
vt 0.326015 0.514599
vt 0.338650 0.528535
vt 0.328732 0.544165
vt 0.276550 0.564065
vt 0.264511 0.553506
vt 0.092864 0.725153
vt 0.103422 0.737193
vt 0.115462 0.747751
vt 0.128776 0.756647
vt 0.143138 0.763730
vt 0.158302 0.768877
vt 0.174007 0.772001
vt 0.189986 0.773048
vt 0.205966 0.772001
vt 0.221671 0.768877
vt 0.236835 0.763730
vt 0.251196 0.756647
vt 0.264511 0.747751
vt 0.276550 0.737192
vt 0.287109 0.725153
vt 0.296005 0.711838
vt 0.303088 0.697476
vt 0.308235 0.682313
vt 0.311359 0.666607
vt 0.312406 0.650628
vt 0.311359 0.634649
vt 0.308235 0.618944
vt 0.303087 0.603780
vt 0.335402 0.590395
vt 0.351559 0.583702
vt 0.370054 0.582928
vt 0.375805 0.600838
vt 0.379780 0.619225
vt 0.363376 0.627801
vt 0.346037 0.630084
vt 0.347383 0.650628
vt 0.346037 0.671173
vt 0.363376 0.673455
vt 0.379780 0.682032
vt 0.375805 0.700418
vt 0.370054 0.718329
vt 0.351559 0.717554
vt 0.335402 0.710862
vt 0.326296 0.729327
vt 0.314858 0.746446
vt 0.328732 0.757092
vt 0.338651 0.772721
vt 0.326016 0.786657
vt 0.312080 0.799293
vt 0.296450 0.789374
vt 0.285804 0.775500
vt 0.268685 0.786938
vt 0.250220 0.796044
vt 0.256912 0.812202
vt 0.257687 0.830696
vt 0.239777 0.836448
vt 0.221390 0.840422
vt 0.212814 0.824018
vt 0.210531 0.806679
vt 0.189987 0.808026
vt 0.169442 0.806679
vt 0.167159 0.824018
vt 0.158583 0.840422
vt 0.140197 0.836448
vt 0.122286 0.830696
vt 0.123061 0.812202
vt 0.129753 0.796044
vt 0.111288 0.786938
vt 0.094169 0.775500
vt 0.083523 0.789375
vt 0.067893 0.799293
vt 0.053957 0.786658
vt 0.041322 0.772722
vt 0.051240 0.757092
vt 0.065115 0.746446
s 1
usemtl GrayPlatform
f 287/247/23 283/248/23 284/249/23 288/250/23
f 295/251/23 296/252/23 297/253/23 298/254/23 307/255/23 308/256/23 309/257/23 310/258/23 319/259/23 320/260/23 321/261/23 322/262/23 331/263/23 332/264/23 333/265/23 334/266/23 343/267/23 344/268/23 345/269/23 346/270/23 355/271/23 359/272/23 349/273/23 351/274/23 354/275/23 353/276/23 352/277/23 350/278/23 348/279/23 347/280/23 337/281/23 339/282/23 342/283/23 341/284/23 340/285/23 338/286/23 336/287/23 335/288/23 325/289/23 327/290/23 330/291/23 329/292/23 328/293/23 326/294/23 324/295/23 323/296/23 313/297/23 315/298/23 318/299/23 317/300/23 316/301/23 314/302/23 312/303/23 311/304/23 301/305/23 303/306/23 306/307/23 305/308/23 304/309/23 302/310/23 300/311/23 299/312/23 289/313/23 291/314/23 294/315/23 293/316/23 292/317/23 290/318/23 288/250/23 284/249/23 285/319/23 286/320/23
f 359/272/23 355/271/23 356/321/23 357/322/23 358/323/23 367/324/23 368/325/23 369/326/23 370/327/23 379/328/23 380/329/23 381/330/23 382/331/23 247/332/23 248/333/23 249/334/23 250/335/23 259/336/23 260/337/23 261/338/23 262/339/23 271/340/23 272/341/23 273/342/23 274/343/23 283/248/23 287/247/23 277/344/23 279/345/23 282/346/23 281/347/23 280/348/23 278/349/23 276/350/23 275/351/23 265/352/23 267/353/23 270/354/23 269/355/23 268/356/23 266/357/23 264/358/23 263/359/23 253/360/23 255/361/23 258/362/23 257/363/23 256/364/23 254/365/23 252/366/23 251/367/23 385/368/23 387/369/23 390/370/23 389/371/23 388/372/23 386/373/23 384/374/23 383/375/23 373/376/23 375/377/23 378/378/23 377/379/23 376/380/23 374/381/23 372/382/23 371/383/23 361/384/23 363/385/23 366/386/23 365/387/23 364/388/23 362/389/23 360/390/23
o GearBig.010
v -0.002060 -0.000000 -0.092334
v -0.002094 -0.000000 -0.092174
v -0.002237 -0.000000 -0.092156
v -0.002248 0.000000 -0.091905
v -0.002102 0.000000 -0.091882
v -0.002084 0.000000 -0.091618
v -0.002234 0.000000 -0.091554
v -0.002179 0.000000 -0.091320
v -0.002012 0.000000 -0.091319
v -0.001933 0.000000 -0.091087
v -0.002072 0.000000 -0.091008
v -0.001957 0.000000 -0.090760
v -0.002142 -0.000000 -0.092587
v -0.001788 0.000000 -0.090805
v -0.001657 0.000000 -0.090636
v -0.001753 0.000000 -0.090506
v -0.001585 0.000000 -0.090303
v -0.001454 0.000000 -0.090397
v -0.001276 0.000000 -0.090236
v -0.001333 0.000000 -0.090101
v -0.001117 0.000000 -0.089953
v -0.001012 0.000000 -0.090056
v -0.000801 0.000000 -0.089949
v -0.000819 0.000000 -0.089815
v -0.000571 0.000000 -0.089730
v -0.000498 0.000000 -0.089867
v -0.000255 0.000000 -0.089821
v -0.000238 0.000000 -0.089674
v 0.000012 0.000000 -0.089663
v -0.000018 0.000000 -0.089702
v 0.000046 0.000000 -0.089799
v 0.000279 0.000000 -0.089824
v 0.000334 0.000000 -0.089691
v 0.000595 0.000000 -0.089744
v 0.000585 0.000000 -0.089882
v 0.000811 0.000000 -0.089978
v 0.000898 0.000000 -0.089858
v 0.001134 0.000000 -0.089980
v 0.001097 0.000000 -0.090110
v 0.001274 0.000000 -0.090243
v 0.001402 0.000000 -0.090157
v 0.001593 0.000000 -0.090339
v 0.001510 0.000000 -0.090448
v 0.001678 0.000000 -0.090639
v 0.001805 0.000000 -0.090585
v 0.001948 0.000000 -0.090798
v 0.001837 0.000000 -0.090912
v 0.001935 0.000000 -0.091120
v 0.002101 0.000000 -0.091102
v 0.002180 0.000000 -0.091350
v 0.002038 0.000000 -0.091424
v 0.002084 0.000000 -0.091666
v 0.002233 0.000000 -0.091676
v 0.002250 -0.000000 -0.091925
v 0.002095 -0.000000 -0.091955
v 0.002078 -0.000000 -0.092203
v 0.002215 -0.000000 -0.092269
v 0.002162 -0.000000 -0.092530
v 0.002020 -0.000000 -0.092512
v 0.001936 -0.000000 -0.092730
v 0.002057 -0.000000 -0.092841
v 0.001940 -0.000000 -0.093061
v 0.001789 -0.000000 -0.093015
v 0.001656 -0.000000 -0.093208
v 0.001761 -0.000000 -0.093342
v 0.001573 -0.000000 -0.093525
v 0.001469 -0.000000 -0.093437
v 0.001270 -0.000000 -0.093610
v 0.001333 -0.000000 -0.093753
v 0.001108 -0.000000 -0.093880
v 0.001011 -0.000000 -0.093771
v 0.000799 -0.000000 -0.093875
v 0.000811 -0.000000 -0.094030
v 0.000552 -0.000000 -0.094108
v 0.000492 -0.000000 -0.093965
v 0.000270 -0.000000 -0.094007
v 0.000230 -0.000000 -0.094181
v -0.000004 -0.000000 -0.094189
v 0.000026 -0.000000 -0.094150
v -0.000048 -0.000000 -0.094020
v -0.000286 -0.000000 -0.094005
v -0.000348 -0.000000 -0.094147
v -0.000594 -0.000000 -0.094090
v -0.000589 -0.000000 -0.093942
v -0.000813 -0.000000 -0.093853
v -0.000916 -0.000000 -0.093976
v -0.001131 -0.000000 -0.093863
v -0.001092 -0.000000 -0.093728
v -0.001299 -0.000000 -0.093568
v -0.001418 -0.000000 -0.093669
v -0.001614 -0.000000 -0.093490
v -0.001527 -0.000000 -0.093367
v -0.001662 -0.000000 -0.093190
v -0.001815 -0.000000 -0.093246
v -0.001961 -0.000000 -0.093030
v -0.001850 -0.000000 -0.092922
v -0.001940 -0.000000 -0.092719
v -0.002098 -0.000000 -0.092723
v -0.000090 -0.000000 -0.092197
v -0.000145 -0.000000 -0.092171
v -0.000281 0.000000 -0.091802
v -0.000295 0.000000 -0.091861
v -0.000031 -0.000000 -0.092211
v -0.000219 0.000000 -0.091697
v 0.000260 0.000000 -0.091717
v 0.000292 0.000000 -0.091769
v -0.000175 0.000000 -0.091656
v 0.000313 0.000000 -0.091826
v 0.000305 -0.000000 -0.092006
v 0.000030 -0.000000 -0.092214
v -0.000267 -0.000000 -0.092039
v 0.000280 -0.000000 -0.092061
v 0.000055 0.000000 -0.091596
v 0.000219 0.000000 -0.091672
v 0.000114 0.000000 -0.091611
v -0.000006 0.000000 -0.091594
v -0.000194 -0.000000 -0.092135
v -0.000235 -0.000000 -0.092091
v 0.000322 0.000000 -0.091886
v -0.000298 -0.000000 -0.091922
v -0.000066 0.000000 -0.091603
v -0.000255 0.000000 -0.091747
v -0.000123 0.000000 -0.091624
v 0.000147 -0.000000 -0.092183
v 0.000199 -0.000000 -0.092151
v 0.000090 -0.000000 -0.092204
v 0.000244 -0.000000 -0.092110
v 0.000320 -0.000000 -0.091947
v 0.000170 0.000000 -0.091636
v -0.000288 -0.000000 -0.091982
vn -0.0000 1.0000 -0.0000
vt 0.035827 0.323879
vt 0.021017 0.327035
vt 0.011628 0.303267
vt 0.016459 0.304818
vt 0.199180 0.241075
vt 0.202080 0.246580
vt 0.205998 0.251414
vt 0.210784 0.255390
vt 0.216254 0.258357
vt 0.222198 0.260199
vt 0.228386 0.260847
vt 0.234582 0.260274
vt 0.240548 0.258504
vt 0.246053 0.255604
vt 0.250887 0.251686
vt 0.254863 0.246900
vt 0.257830 0.241430
vt 0.259672 0.235487
vt 0.260320 0.229298
vt 0.259747 0.223102
vt 0.257977 0.217137
vt 0.445592 0.153553
vt 0.450382 0.155101
vt 0.435415 0.164931
vt 0.441837 0.188470
vt 0.457614 0.189807
vt 0.460292 0.215445
vt 0.445737 0.219934
vt 0.444554 0.244557
vt 0.459864 0.250395
vt 0.456060 0.274936
vt 0.441680 0.275618
vt 0.433036 0.300979
vt 0.446730 0.309200
vt 0.435859 0.334031
vt 0.421151 0.329673
vt 0.408465 0.348633
vt 0.418925 0.361618
vt 0.402842 0.382824
vt 0.388710 0.375644
vt 0.371998 0.391070
vt 0.377628 0.406310
vt 0.365925 0.415008
vt 0.338729 0.415436
vt 0.324337 0.424072
vt 0.327323 0.438506
vt 0.303394 0.447809
vt 0.296373 0.434426
vt 0.270172 0.441477
vt 0.268934 0.458070
vt 0.244535 0.460450
vt 0.238895 0.444357
vt 0.213838 0.444418
vt 0.210783 0.460450
vt 0.182978 0.457540
vt 0.181690 0.439666
vt 0.160985 0.432576
vt 0.151578 0.446178
vt 0.126408 0.436595
vt 0.131205 0.420846
vt 0.109679 0.408917
vt 0.098520 0.418921
vt 0.077067 0.402938
vt 0.083608 0.389354
vt 0.066228 0.372432
vt 0.053809 0.378637
vt 0.037417 0.357433
vt 0.048220 0.345849
vt 0.023690 0.295482
vt 0.018455 0.272034
vt 0.003719 0.271136
vt 0.000193 0.244119
vt 0.013962 0.240525
vt 0.015711 0.215527
vt 0.001250 0.211068
vt 0.005238 0.184153
vt 0.019024 0.183426
vt 0.026060 0.161880
vt 0.013544 0.152318
vt 0.024863 0.127879
vt 0.038137 0.132247
vt 0.051098 0.109726
vt 0.041641 0.099205
vt 0.057579 0.078346
vt 0.072203 0.085326
vt 0.089107 0.068959
vt 0.081944 0.053482
vt 0.103349 0.037582
vt 0.115133 0.048879
vt 0.137103 0.036485
vt 0.133108 0.021730
vt 0.156675 0.011848
vt 0.164670 0.025837
vt 0.189295 0.019260
vt 0.191079 0.003876
vt 0.218096 0.000349
vt 0.221051 0.014666
vt 0.244981 0.015557
vt 0.251659 0.000193
vt 0.276894 0.004289
vt 0.277438 0.020449
vt 0.300463 0.026883
vt 0.310062 0.012341
vt 0.333962 0.024453
vt 0.328901 0.037435
vt 0.352216 0.050935
vt 0.363914 0.040136
vt 0.383695 0.057662
vt 0.376361 0.070707
vt 0.393371 0.087780
vt 0.408063 0.081511
vt 0.424117 0.104003
vt 0.412318 0.114554
vt 0.423662 0.134652
vt 0.441841 0.132712
vt 0.255077 0.211631
vt 0.251159 0.206797
vt 0.246373 0.202821
vt 0.240903 0.199854
vt 0.234960 0.198012
vt 0.228771 0.197364
vt 0.222575 0.197937
vt 0.216609 0.199707
vt 0.211104 0.202607
vt 0.206270 0.206525
vt 0.202294 0.211311
vt 0.199327 0.216781
vt 0.197485 0.222725
vt 0.196837 0.228913
vt 0.197410 0.235109
s 1
usemtl Beige.001
f 417/391/24 418/392/24 419/393/24 420/394/24 506/395/24 511/396/24 513/397/24 497/398/24 494/399/24 512/400/24 491/401/24 492/402/24 510/403/24 520/404/24 501/405/24 508/406/24 507/407/24 490/408/24 489/409/24 493/410/24 500/411/24 469/412/24 468/413/24 470/414/24 471/415/24 472/416/24 473/417/24 474/418/24 475/419/24 476/420/24 477/421/24 478/422/24 479/423/24 480/424/24 481/425/24 482/426/24 483/427/24 484/428/24 485/429/24 486/430/24 487/431/24 488/432/24 403/433/24 391/434/24 392/435/24 393/436/24 394/437/24 395/438/24 396/439/24 397/440/24 398/441/24 399/442/24 400/443/24 401/444/24 402/445/24 404/446/24 405/447/24 406/448/24 407/449/24 408/450/24 409/451/24 410/452/24 411/453/24 412/454/24 413/455/24 414/456/24 415/457/24 416/458/24
f 419/393/24 421/459/24 422/460/24 423/461/24 424/462/24 425/463/24 426/464/24 427/465/24 428/466/24 429/467/24 430/468/24 431/469/24 432/470/24 433/471/24 434/472/24 435/473/24 436/474/24 437/475/24 438/476/24 439/477/24 440/478/24 441/479/24 442/480/24 443/481/24 444/482/24 445/483/24 446/484/24 447/485/24 448/486/24 449/487/24 450/488/24 451/489/24 452/490/24 453/491/24 454/492/24 455/493/24 456/494/24 457/495/24 458/496/24 459/497/24 460/498/24 461/499/24 462/500/24 463/501/24 464/502/24 465/503/24 466/504/24 467/505/24 468/413/24 469/412/24 500/411/24 516/506/24 514/507/24 515/508/24 517/509/24 502/510/24 499/511/24 518/512/24 509/513/24 498/514/24 496/515/24 495/516/24 504/517/24 519/518/24 505/519/24 503/520/24 506/395/24 420/394/24
o GearBig.009
v -0.006418 -0.000000 -0.059807
v -0.006526 -0.000000 -0.059307
v -0.006971 -0.000000 -0.059251
v -0.007004 0.000000 -0.058469
v -0.006549 0.000000 -0.058399
v -0.006494 0.000000 -0.057574
v -0.006960 0.000000 -0.057375
v -0.006788 0.000000 -0.056648
v -0.006269 0.000000 -0.056644
v -0.006024 0.000000 -0.055921
v -0.006456 0.000000 -0.055675
v -0.006098 0.000000 -0.054902
v -0.006674 -0.000000 -0.060595
v -0.005570 0.000000 -0.055041
v -0.005162 0.000000 -0.054514
v -0.005462 0.000000 -0.054109
v -0.004937 0.000000 -0.053478
v -0.004531 0.000000 -0.053771
v -0.003975 0.000000 -0.053268
v -0.004153 0.000000 -0.052848
v -0.003481 0.000000 -0.052387
v -0.003154 0.000000 -0.052709
v -0.002495 0.000000 -0.052374
v -0.002552 0.000000 -0.051955
v -0.001779 0.000000 -0.051692
v -0.001551 0.000000 -0.052117
v -0.000796 0.000000 -0.051976
v -0.000741 0.000000 -0.051518
v 0.000037 0.000000 -0.051481
v -0.000056 0.000000 -0.051605
v 0.000142 0.000000 -0.051906
v 0.000870 0.000000 -0.051986
v 0.001041 0.000000 -0.051570
v 0.001855 0.000000 -0.051734
v 0.001823 0.000000 -0.052167
v 0.002526 0.000000 -0.052463
v 0.002797 0.000000 -0.052090
v 0.003534 0.000000 -0.052470
v 0.003419 0.000000 -0.052875
v 0.003971 0.000000 -0.053290
v 0.004370 0.000000 -0.053023
v 0.004963 0.000000 -0.053590
v 0.004706 0.000000 -0.053930
v 0.005228 0.000000 -0.054525
v 0.005624 0.000000 -0.054356
v 0.006069 0.000000 -0.055021
v 0.005723 0.000000 -0.055374
v 0.006029 0.000000 -0.056022
v 0.006546 0.000000 -0.055968
v 0.006793 0.000000 -0.056742
v 0.006352 0.000000 -0.056970
v 0.006492 0.000000 -0.057726
v 0.006957 0.000000 -0.057756
v 0.007010 -0.000000 -0.058533
v 0.006528 -0.000000 -0.058625
v 0.006475 -0.000000 -0.059400
v 0.006901 -0.000000 -0.059603
v 0.006737 -0.000000 -0.060417
v 0.006295 -0.000000 -0.060361
v 0.006034 -0.000000 -0.061042
v 0.006411 -0.000000 -0.061386
v 0.006044 -0.000000 -0.062073
v 0.005573 -0.000000 -0.061929
v 0.005161 -0.000000 -0.062530
v 0.005485 -0.000000 -0.062950
v 0.004901 -0.000000 -0.063519
v 0.004576 -0.000000 -0.063246
v 0.003958 -0.000000 -0.063785
v 0.004154 -0.000000 -0.064229
v 0.003454 -0.000000 -0.064626
v 0.003150 -0.000000 -0.064286
v 0.002490 -0.000000 -0.064609
v 0.002526 -0.000000 -0.065094
v 0.001720 -0.000000 -0.065335
v 0.001532 -0.000000 -0.064891
v 0.000840 -0.000000 -0.065020
v 0.000717 -0.000000 -0.065564
v -0.000012 -0.000000 -0.065589
v 0.000080 -0.000000 -0.065466
v -0.000148 -0.000000 -0.065061
v -0.000890 -0.000000 -0.065014
v -0.001084 -0.000000 -0.065456
v -0.001850 -0.000000 -0.065281
v -0.001836 -0.000000 -0.064817
v -0.002534 -0.000000 -0.064540
v -0.002853 -0.000000 -0.064924
v -0.003523 -0.000000 -0.064573
v -0.003401 -0.000000 -0.064152
v -0.004047 -0.000000 -0.063653
v -0.004419 -0.000000 -0.063967
v -0.005028 -0.000000 -0.063409
v -0.004757 -0.000000 -0.063028
v -0.005179 -0.000000 -0.062475
v -0.005656 -0.000000 -0.062649
v -0.006109 -0.000000 -0.061976
v -0.005763 -0.000000 -0.061640
v -0.006043 -0.000000 -0.061006
v -0.006538 -0.000000 -0.061018
v -0.000280 -0.000000 -0.059379
v -0.000452 -0.000000 -0.059300
v -0.000875 0.000000 -0.058148
v -0.000919 0.000000 -0.058332
v -0.000095 -0.000000 -0.059424
v -0.000684 0.000000 -0.057823
v 0.000810 0.000000 -0.057884
v 0.000909 0.000000 -0.058045
v -0.000544 0.000000 -0.057694
v 0.000974 0.000000 -0.058223
v 0.000952 -0.000000 -0.058784
v 0.000094 -0.000000 -0.059432
v -0.000832 -0.000000 -0.058887
v 0.000872 -0.000000 -0.058956
v 0.000172 0.000000 -0.057508
v 0.000682 0.000000 -0.057744
v 0.000357 0.000000 -0.057553
v -0.000017 0.000000 -0.057501
v -0.000605 -0.000000 -0.059188
v -0.000733 -0.000000 -0.059049
v 0.001004 0.000000 -0.058411
v -0.000927 -0.000000 -0.058522
v -0.000204 0.000000 -0.057530
v -0.000795 0.000000 -0.057976
v -0.000382 0.000000 -0.057596
v 0.000459 -0.000000 -0.059337
v 0.000621 -0.000000 -0.059238
v 0.000281 -0.000000 -0.059402
v 0.000760 -0.000000 -0.059110
v 0.000996 -0.000000 -0.058600
v 0.000529 0.000000 -0.057633
v -0.000898 -0.000000 -0.058709
vn -0.0000 1.0000 -0.0000
vt 0.472112 0.303267
vt 0.484175 0.295482
vt 0.478940 0.272034
vt 0.464204 0.271136
vt 0.460677 0.244119
vt 0.474446 0.240525
vt 0.476196 0.215526
vt 0.461735 0.211068
vt 0.465722 0.184153
vt 0.479509 0.183426
vt 0.486544 0.161880
vt 0.474029 0.152318
vt 0.485347 0.127879
vt 0.498621 0.132246
vt 0.511582 0.109725
vt 0.502126 0.099205
vt 0.518063 0.078346
vt 0.532688 0.085325
vt 0.549592 0.068959
vt 0.542428 0.053482
vt 0.563833 0.037582
vt 0.575618 0.048879
vt 0.597588 0.036485
vt 0.593592 0.021730
vt 0.617159 0.011848
vt 0.625154 0.025837
vt 0.649780 0.019260
vt 0.651564 0.003876
vt 0.678581 0.000349
vt 0.681536 0.014666
vt 0.705466 0.015557
vt 0.712143 0.000193
vt 0.737378 0.004289
vt 0.737922 0.020449
vt 0.760947 0.026883
vt 0.770546 0.012341
vt 0.794446 0.024453
vt 0.789385 0.037435
vt 0.812700 0.050935
vt 0.824399 0.040136
vt 0.844180 0.057662
vt 0.836845 0.070707
vt 0.853855 0.087780
vt 0.868547 0.081511
vt 0.884601 0.104003
vt 0.872803 0.114554
vt 0.884147 0.134653
vt 0.902326 0.132712
vt 0.910866 0.155101
vt 0.906076 0.153553
vt 0.718462 0.217137
vt 0.715562 0.211631
vt 0.711643 0.206797
vt 0.706857 0.202821
vt 0.701388 0.199854
vt 0.695444 0.198012
vt 0.689255 0.197364
vt 0.683059 0.197937
vt 0.677094 0.199707
vt 0.671588 0.202607
vt 0.666755 0.206525
vt 0.662778 0.211311
vt 0.659812 0.216781
vt 0.657969 0.222725
vt 0.657322 0.228913
vt 0.657894 0.235109
vt 0.659664 0.241075
vt 0.476943 0.304818
vt 0.496311 0.323879
vt 0.481501 0.327035
vt 0.662564 0.246580
vt 0.666483 0.251414
vt 0.671269 0.255390
vt 0.676738 0.258357
vt 0.682682 0.260199
vt 0.688870 0.260847
vt 0.695067 0.260274
vt 0.701032 0.258504
vt 0.706537 0.255604
vt 0.711371 0.251686
vt 0.715348 0.246900
vt 0.718314 0.241430
vt 0.720157 0.235487
vt 0.720804 0.229298
vt 0.720232 0.223102
vt 0.895899 0.164931
vt 0.902321 0.188470
vt 0.918098 0.189807
vt 0.920776 0.215445
vt 0.906222 0.219934
vt 0.905038 0.244558
vt 0.920348 0.250395
vt 0.916544 0.274936
vt 0.902164 0.275618
vt 0.893521 0.300979
vt 0.907214 0.309200
vt 0.896343 0.334031
vt 0.881635 0.329673
vt 0.868949 0.348633
vt 0.879409 0.361619
vt 0.863326 0.382824
vt 0.849194 0.375644
vt 0.832482 0.391071
vt 0.838112 0.406310
vt 0.826409 0.415009
vt 0.799213 0.415436
vt 0.784821 0.424072
vt 0.787807 0.438506
vt 0.763879 0.447809
vt 0.756857 0.434426
vt 0.730656 0.441477
vt 0.729419 0.458070
vt 0.705019 0.460450
vt 0.699379 0.444357
vt 0.674323 0.444418
vt 0.671268 0.460450
vt 0.643463 0.457540
vt 0.642175 0.439666
vt 0.621469 0.432576
vt 0.612062 0.446178
vt 0.586892 0.436595
vt 0.591689 0.420846
vt 0.570163 0.408917
vt 0.559004 0.418921
vt 0.537552 0.402938
vt 0.544092 0.389354
vt 0.526712 0.372432
vt 0.514294 0.378637
vt 0.497901 0.357433
vt 0.508705 0.345849
s 1
usemtl DarkBeige.002
f 549/521/25 551/522/25 552/523/25 553/524/25 554/525/25 555/526/25 556/527/25 557/528/25 558/529/25 559/530/25 560/531/25 561/532/25 562/533/25 563/534/25 564/535/25 565/536/25 566/537/25 567/538/25 568/539/25 569/540/25 570/541/25 571/542/25 572/543/25 573/544/25 574/545/25 575/546/25 576/547/25 577/548/25 578/549/25 579/550/25 580/551/25 581/552/25 582/553/25 583/554/25 584/555/25 585/556/25 586/557/25 587/558/25 588/559/25 589/560/25 590/561/25 591/562/25 592/563/25 593/564/25 594/565/25 595/566/25 596/567/25 597/568/25 598/569/25 599/570/25 630/571/25 646/572/25 644/573/25 645/574/25 647/575/25 632/576/25 629/577/25 648/578/25 639/579/25 628/580/25 626/581/25 625/582/25 634/583/25 649/584/25 635/585/25 633/586/25 636/587/25 550/588/25
f 547/589/25 548/590/25 549/521/25 550/588/25 636/587/25 641/591/25 643/592/25 627/593/25 624/594/25 642/595/25 621/596/25 622/597/25 640/598/25 650/599/25 631/600/25 638/601/25 637/602/25 620/603/25 619/604/25 623/605/25 630/571/25 599/570/25 598/569/25 600/606/25 601/607/25 602/608/25 603/609/25 604/610/25 605/611/25 606/612/25 607/613/25 608/614/25 609/615/25 610/616/25 611/617/25 612/618/25 613/619/25 614/620/25 615/621/25 616/622/25 617/623/25 618/624/25 533/625/25 521/626/25 522/627/25 523/628/25 524/629/25 525/630/25 526/631/25 527/632/25 528/633/25 529/634/25 530/635/25 531/636/25 532/637/25 534/638/25 535/639/25 536/640/25 537/641/25 538/642/25 539/643/25 540/644/25 541/645/25 542/646/25 543/647/25 544/648/25 545/649/25 546/650/25
o Body.003
v 0.006205 0.000000 -0.075841
v 0.005002 0.000000 -0.075227
v 0.005769 0.000000 -0.077379
v 0.004424 0.000000 -0.077272
v 0.005955 0.000000 -0.078967
v 0.004671 0.000000 -0.079383
v 0.006735 0.000000 -0.080363
v 0.005708 0.000000 -0.081238
v 0.007990 0.000000 -0.081353
v 0.007376 0.000000 -0.082556
v 0.009528 0.000000 -0.081789
v 0.009421 0.000000 -0.083135
v 0.011116 0.000000 -0.081603
v 0.011532 0.000000 -0.082887
v 0.012511 0.000000 -0.080823
v 0.013387 0.000000 -0.081850
v 0.013502 0.000000 -0.079568
v 0.014705 0.000000 -0.080182
v 0.013938 0.000000 -0.078030
v 0.015283 0.000000 -0.078137
v 0.013752 0.000000 -0.076442
v 0.015036 0.000000 -0.076026
v 0.012972 0.000000 -0.075047
v 0.013999 0.000000 -0.074171
v 0.011717 0.000000 -0.074056
v 0.012331 0.000000 -0.072854
v 0.010179 0.000000 -0.073620
v 0.010286 0.000000 -0.072275
v 0.008591 0.000000 -0.073807
v 0.008175 0.000000 -0.072522
v 0.007196 0.000000 -0.074586
v 0.006320 0.000000 -0.073559
v 0.006205 0.000000 -0.075841
v 0.011717 0.000000 -0.074056
v 0.013502 0.000000 -0.079568
v 0.007990 0.000000 -0.081353
v 0.013752 0.000000 -0.076442
v 0.012972 0.000000 -0.075047
v 0.010179 0.000000 -0.073620
v 0.007196 0.000000 -0.074586
v 0.005955 0.000000 -0.078967
v 0.005769 0.000000 -0.077379
v 0.008591 0.000000 -0.073807
v 0.013938 0.000000 -0.078030
v 0.012511 0.000000 -0.080823
v 0.009528 0.000000 -0.081789
v 0.006735 0.000000 -0.080363
v 0.011116 0.000000 -0.081603
v -0.013502 -0.000000 -0.075873
v -0.014705 -0.000000 -0.075259
v -0.013938 -0.000000 -0.077412
v -0.015283 -0.000000 -0.077304
v -0.013752 -0.000000 -0.078999
v -0.015036 -0.000000 -0.079415
v -0.012972 -0.000000 -0.080395
v -0.013999 -0.000000 -0.081271
v -0.011717 -0.000000 -0.081386
v -0.012331 -0.000000 -0.082588
v -0.010179 -0.000000 -0.081821
v -0.010286 -0.000000 -0.083167
v -0.008591 -0.000000 -0.081635
v -0.008175 -0.000000 -0.082919
v -0.007196 -0.000000 -0.080855
v -0.006320 -0.000000 -0.081883
v -0.006205 -0.000000 -0.079601
v -0.005002 -0.000000 -0.080215
v -0.005769 -0.000000 -0.078063
v -0.004424 -0.000000 -0.078170
v -0.005955 -0.000000 -0.076475
v -0.004671 -0.000000 -0.076059
v -0.006735 -0.000000 -0.075079
v -0.005708 -0.000000 -0.074204
v -0.007990 -0.000000 -0.074088
v -0.007376 -0.000000 -0.072886
v -0.009528 -0.000000 -0.073653
v -0.009421 -0.000000 -0.072307
v -0.011116 -0.000000 -0.073839
v -0.011532 -0.000000 -0.072555
v -0.012511 -0.000000 -0.074619
v -0.013387 -0.000000 -0.073592
v -0.013502 -0.000000 -0.075873
v -0.007990 -0.000000 -0.074088
v -0.006205 -0.000000 -0.079601
v -0.011717 -0.000000 -0.081386
v -0.005955 -0.000000 -0.076475
v -0.006735 -0.000000 -0.075079
v -0.009528 -0.000000 -0.073653
v -0.012511 -0.000000 -0.074619
v -0.013752 -0.000000 -0.078999
v -0.013938 -0.000000 -0.077412
v -0.011116 -0.000000 -0.073839
v -0.005769 -0.000000 -0.078063
v -0.007196 -0.000000 -0.080855
v -0.010179 -0.000000 -0.081821
v -0.012972 -0.000000 -0.080395
v -0.008591 -0.000000 -0.081635
vn -0.0000 1.0000 -0.0000
vn -0.0000 -1.0000 -0.0000
vt 0.758928 0.704993
vt 0.759170 0.704713
vt 0.759539 0.705137
vt 0.759750 0.705669
vt 0.759771 0.706254
vt 0.759573 0.706821
vt 0.759232 0.706629
vt 0.759389 0.706202
vt 0.759382 0.705744
vt 0.759214 0.705322
vt 0.759164 0.707276
vt 0.758613 0.707511
vt 0.758025 0.707511
vt 0.757467 0.707242
vt 0.757088 0.706727
vt 0.756991 0.706145
vt 0.757012 0.705586
vt 0.757191 0.705081
vt 0.757517 0.704671
vt 0.758093 0.704381
vt 0.758685 0.704435
vt 0.758568 0.704785
vt 0.758157 0.704755
vt 0.757737 0.704984
vt 0.757494 0.705245
vt 0.757380 0.705643
vt 0.757387 0.706114
vt 0.757452 0.706569
vt 0.757712 0.706932
vt 0.758104 0.707136
vt 0.758536 0.707144
vt 0.758930 0.706958
vt 0.757387 0.706114
vt 0.757453 0.706569
vt 0.757712 0.706932
vt 0.758105 0.707135
vt 0.758536 0.707143
vt 0.758930 0.706957
vt 0.759231 0.706628
vt 0.759388 0.706202
vt 0.759381 0.705744
vt 0.759213 0.705322
vt 0.758928 0.704994
vt 0.758567 0.704785
vt 0.758157 0.704755
vt 0.757736 0.704986
vt 0.757494 0.705246
vt 0.757380 0.705643
vt 0.759224 0.710162
vt 0.759539 0.710374
vt 0.759131 0.710779
vt 0.758614 0.710991
vt 0.758055 0.710991
vt 0.757530 0.710749
vt 0.757754 0.710453
vt 0.758126 0.710635
vt 0.758545 0.710642
vt 0.758933 0.710470
vt 0.757159 0.710274
vt 0.757022 0.709713
vt 0.756991 0.709137
vt 0.757159 0.708556
vt 0.757572 0.708092
vt 0.758129 0.707896
vt 0.758707 0.707946
vt 0.759223 0.708227
vt 0.759613 0.708684
vt 0.759798 0.709265
vt 0.759763 0.709847
vt 0.759398 0.709763
vt 0.759412 0.709309
vt 0.759264 0.708876
vt 0.758981 0.708521
vt 0.758591 0.708312
vt 0.758177 0.708259
vt 0.757794 0.708409
vt 0.757505 0.708733
vt 0.757379 0.709173
vt 0.757420 0.709654
vt 0.757510 0.710110
vt 0.758177 0.708260
vt 0.757794 0.708410
vt 0.757506 0.708733
vt 0.757380 0.709173
vt 0.757420 0.709654
vt 0.757510 0.710110
vt 0.757755 0.710453
vt 0.758126 0.710635
vt 0.758545 0.710642
vt 0.758933 0.710469
vt 0.759223 0.710162
vt 0.759397 0.709763
vt 0.759411 0.709309
vt 0.759263 0.708876
vt 0.758981 0.708522
vt 0.758591 0.708313
s 0
usemtl DarkBeige
f 687/651/26 672/652/26 670/653/26 668/654/26 666/655/26 664/656/26 698/657/26 695/658/26 685/659/26 694/660/26
f 664/656/26 662/661/26 660/662/26 658/663/26 656/664/26 654/665/26 652/666/26 682/667/26 680/668/26 678/669/26 676/670/26 674/671/26 672/652/26 687/651/26 688/672/26 684/673/26 689/674/26 693/675/26 690/676/26 683/677/26 692/678/26 691/679/26 697/680/26 686/681/26 696/682/26 698/657/26
f 683/677/26 651/683/26 653/684/26 692/678/26
f 692/678/26 653/684/26 655/685/26 691/679/26
f 655/685/26 657/686/26 697/680/26 691/679/26
f 657/686/26 659/687/26 686/681/26 697/680/26
f 659/687/26 661/688/26 696/682/26 686/681/26
f 661/688/26 663/689/26 698/657/26 696/682/26
f 663/689/26 665/690/26 695/658/26 698/657/26
f 665/690/26 667/691/26 685/659/26 695/658/26
f 667/691/26 669/692/26 694/660/26 685/659/26
f 669/692/26 671/693/26 687/651/26 694/660/26
f 687/651/26 671/693/26 673/694/26 688/672/26
f 688/672/26 673/694/26 675/695/26 684/673/26
f 684/673/26 675/695/26 677/696/26 689/674/26
f 689/674/27 677/696/27 679/697/27 693/675/27
f 693/675/26 679/697/26 681/698/26 690/676/26
f 690/676/26 681/698/26 651/683/26 683/677/26
f 735/699/26 720/700/26 718/701/26 716/702/26 714/703/26 712/704/26 746/705/26 743/706/26 733/707/26 742/708/26
f 712/704/26 710/709/26 708/710/26 706/711/26 704/712/26 702/713/26 700/714/26 730/715/26 728/716/26 726/717/26 724/718/26 722/719/26 720/700/26 735/699/26 736/720/26 732/721/26 737/722/26 741/723/26 738/724/26 731/725/26 740/726/26 739/727/26 745/728/26 734/729/26 744/730/26 746/705/26
f 731/725/26 699/731/26 701/732/26 740/726/26
f 740/726/26 701/732/26 703/733/26 739/727/26
f 703/733/26 705/734/26 745/728/26 739/727/26
f 705/734/26 707/735/26 734/729/26 745/728/26
f 707/735/26 709/736/26 744/730/26 734/729/26
f 709/736/26 711/737/26 746/705/26 744/730/26
f 711/737/26 713/738/26 743/706/26 746/705/26
f 713/738/26 715/739/26 733/707/26 743/706/26
f 715/739/26 717/740/26 742/708/26 733/707/26
f 717/740/26 719/741/26 735/699/26 742/708/26
f 735/699/26 719/741/26 721/742/26 736/720/26
f 736/720/26 721/742/26 723/743/26 732/721/26
f 732/721/26 723/743/26 725/744/26 737/722/26
f 737/722/26 725/744/26 727/745/26 741/723/26
f 741/723/26 727/745/26 729/746/26 738/724/26
f 738/724/26 729/746/26 699/731/26 731/725/26
