# Blender 5.0.1
# www.blender.org
mtllib 3d_hatisol.mtl
o Hat
v 0.009735 0.040322 -0.005436
v 0.009678 0.075019 -0.005436
v 0.018762 0.040337 0.010199
v 0.018704 0.075034 0.010199
v 0.009735 0.040322 0.025834
v 0.009678 0.075019 0.025834
v -0.008319 0.040292 0.025834
v -0.008376 0.074989 0.025834
v -0.017346 0.040277 0.010199
v -0.017403 0.074975 0.010199
v -0.008319 0.040292 -0.005436
v -0.008376 0.074989 -0.005436
v 0.008369 0.053967 -0.003110
v 0.016053 0.053979 0.010199
v 0.008369 0.053967 0.023507
v -0.006998 0.053941 0.023507
v -0.014682 0.053929 0.010199
v -0.006998 0.053941 -0.003110
v 0.009744 0.034900 -0.005436
v 0.018770 0.034915 0.010199
v 0.009744 0.034900 0.025834
v -0.008310 0.034871 0.025834
v -0.017337 0.034856 0.010199
v -0.008310 0.034871 -0.005436
v 0.014283 0.040329 -0.015717
v 0.027857 0.040352 0.010199
v 0.014283 0.040329 0.036115
v -0.012867 0.040285 0.036115
v -0.026441 0.040262 0.010199
v -0.012867 0.040285 -0.015717
v 0.014292 0.034908 -0.015717
v 0.027866 0.034930 0.010199
v 0.014292 0.034908 0.036115
v -0.012858 0.034863 0.036115
v -0.026432 0.034841 0.010199
v -0.012858 0.034863 -0.015717
vn -0.0016 1.0000 -0.0000
vn -0.0003 0.1680 -0.9858
vn -0.8540 0.1666 -0.4929
vn -0.8540 0.1666 0.4929
vn -0.0003 0.1680 0.9858
vn 0.8534 0.1694 0.4929
vn 0.8534 0.1694 -0.4929
vn -0.8606 -0.1113 0.4970
vn 0.8610 -0.1084 0.4970
vn 0.8610 -0.1084 -0.4970
vn 0.0002 -0.1098 -0.9939
vn -0.8606 -0.1113 -0.4970
vn 0.0002 -0.1098 0.9939
vn 0.0016 -1.0000 -0.0000
vn -0.8858 -0.0015 0.4640
vn 0.8858 0.0015 0.4640
vn -0.8858 -0.0015 -0.4640
vn 0.8858 0.0015 -0.4640
vn -0.0000 -0.0000 1.0000
vn -0.0000 -0.0000 -1.0000
vt 0.340850 0.542574
vt 0.356216 0.521486
vt 0.380502 0.524098
vt 0.388075 0.548657
vt 0.374655 0.570440
vt 0.350460 0.566810
vt 0.289284 0.635290
vt 0.400484 0.650984
vt 0.417913 0.722739
vt 0.248822 0.697324
vt 0.441023 0.460693
vt 0.411123 0.494830
vt 0.344305 0.478774
vt 0.331461 0.436199
vt 0.479400 0.569029
vt 0.429961 0.558797
vt 0.386554 0.611284
vt 0.319568 0.597846
vt 0.245245 0.520769
vt 0.298018 0.531639
vt 0.000184 0.471109
vt 0.196529 0.000184
vt 0.308888 0.328268
vt 0.156105 0.502706
vt 0.187246 0.508372
vt 0.318409 0.357487
vt 0.532072 0.580218
vt 0.667784 0.606904
vt 0.526131 0.931378
vt 0.428529 0.748747
vt 0.559714 0.585247
vt 0.482083 0.406436
vt 0.229832 0.721340
vt 0.500830 0.386015
vt 0.660913 0.256133
vt 0.000184 0.974847
s 0
usemtl OpaqueBlack
f 4/1/1 2/2/1 12/3/1 10/4/1 8/5/1 6/6/1
f 5/7/1 7/8/1 28/9/1 27/10/1
f 11/11/2 18/12/2 13/13/2 1/14/2
f 9/15/3 17/16/3 18/12/3 11/11/3
f 7/8/4 16/17/4 17/16/4 9/15/4
f 5/7/5 15/18/5 16/17/5 7/8/5
f 3/19/6 14/20/6 15/18/6 5/7/6
f 1/14/7 13/13/7 14/20/7 3/19/7
f 10/4/8 17/16/8 16/17/8 8/5/8
f 6/6/9 15/18/9 14/20/9 4/1/9
f 4/1/10 14/20/10 13/13/10 2/2/10
f 2/2/11 13/13/11 18/12/11 12/3/11
f 12/3/12 18/12/12 17/16/12 10/4/12
f 8/5/13 16/17/13 15/18/13 6/6/13
f 20/21/14 19/22/14 31/23/14 32/24/14
f 1/14/1 3/19/1 26/25/1 25/26/1
f 7/8/1 9/15/1 29/27/1 28/9/1
f 23/28/14 22/29/14 34/30/14 35/31/14
f 9/15/1 11/11/1 30/32/1 29/27/1
f 28/9/15 29/27/15 35/31/15 34/30/15
f 26/25/16 27/10/16 33/33/16 32/24/16
f 29/27/17 30/32/17 36/34/17 35/31/17
f 25/26/18 26/25/18 32/24/18 31/23/18
f 27/10/19 28/9/19 34/30/19 33/33/19
f 30/32/20 25/26/20 31/23/20 36/34/20
f 24/35/14 23/28/14 35/31/14 36/34/14
f 3/19/1 5/7/1 27/10/1 26/25/1
f 21/36/14 20/21/14 32/24/14 33/33/14
f 19/22/14 24/35/14 36/34/14 31/23/14
f 22/29/14 21/36/14 33/33/14 34/30/14
f 11/11/1 1/14/1 25/26/1 30/32/1
