<?xml version="1.0" encoding="UTF-8"?>
<svg id="Layer_1" xmlns="http://www.w3.org/2000/svg" version="1.1" viewBox="0 0 1656 792">
  <!-- Generator: Adobe Illustrator 30.2.1, SVG Export Plug-In . SVG Version: 2.1.1 Build 1)  -->
  <defs>
    <style>
      .st0 {
        fill: none;
        stroke: red;
        stroke-linecap: round;
        stroke-linejoin: round;
        stroke-width: 2px;
      }
    </style>
  </defs>
  <path class="st0" d="M949.6,747.9h0l-425.6-3.7h0s-180.2-351.5-180.2-351.5h0S589.2,45,589.2,45h0l425.6,3.7h0s180.2,351.5,180.2,351.5h0s-245.4,347.8-245.4,347.8h0ZM524,744.2l425.6,3.7,245.4-347.7L1014.8,48.8l-425.6-3.7-245.4,347.7,180.2,351.4h0ZM889.2,630.2h0l-262.3-13.1h0s-119.8-233.7-119.8-233.7h0s142.5-220.6,142.5-220.6h0l262.3,13.1h0s119.8,233.7,119.8,233.7h0s-142.5,220.6-142.5,220.6h0ZM626.9,617.1l262.3,13.1,142.5-220.6-119.8-233.7-262.3-13.1-142.5,220.6,119.8,233.7Z"/>
  <g>
    <g>
      <polygon class="st0" points="27.8 284.7 27.8 284.7 27.8 22.1 27.8 22.1 27.8 22 335.9 41.6 335.9 41.6 27.8 22.1 27.8 284.7"/>
      <polygon class="st0" points="27.8 284.7 27.8 284.7 335.9 265.1 335.9 41.6 335.9 41.6 335.9 265.2 335.9 265.2 27.8 284.7"/>
    </g>
    <g>
      <polygon class="st0" points="335.9 527.8 27.8 508.3 27.8 508.3 335.9 527.8 335.9 265.2 335.9 265.2 335.9 527.8 335.9 527.8 335.9 527.8"/>
      <polygon class="st0" points="27.8 508.3 27.8 508.3 27.8 284.7 27.8 284.7 335.9 265.2 335.9 265.2 27.8 284.7 27.8 508.3"/>
    </g>
    <g>
      <polygon class="st0" points="27.8 770.9 27.8 770.9 27.8 508.3 27.8 508.3 27.8 508.3 335.9 527.8 335.9 527.8 27.8 508.3 27.8 770.9"/>
      <polygon class="st0" points="27.8 770.9 27.8 770.9 335.9 751.4 335.9 527.8 335.9 527.8 335.9 751.4 335.9 751.4 27.8 770.9"/>
    </g>
  </g>
  <g>
    <path class="st0" d="M1352.5,741h-223.6s-19.5-201.4-19.5-201.4h0s134.9-47,134.9-47h0l127.8,47h0s-19.5,201.4-19.5,201.4h0ZM1129,740.9h223.5l19.5-201.4-127.8-47-134.8,47,19.5,201.4h0Z"/>
    <path class="st0" d="M1372.1,539.6h0l-127.8-47h0s19.5-201.4,19.5-201.4h223.6s19.5,201.4,19.5,201.4h0s-134.9,47-134.9,47ZM1244.3,492.6l127.8,47,134.8-47-19.5-201.4h-223.5l-19.5,201.4h0Z"/>
    <path class="st0" d="M1615.2,741h-223.6s-19.5-201.4-19.5-201.4h0s134.9-47,134.9-47h0l127.8,47h0s-19.5,201.4-19.5,201.4h0ZM1391.6,741h223.5l19.5-201.4-127.8-47-134.8,47,19.5,201.4h0Z"/>
  </g>
  <g>
    <path class="st0" d="M1174.3,124.3h0s0,0,0,0l-.7-78.9h0s394.9-3.5,394.9-3.5h0s0,0,0,0l.7,78.9h0s-394.9,3.5-394.9,3.5ZM1173.6,45.4l.7,78.8,394.9-3.4-.7-78.8s-394.9,3.4-394.9,3.4Z"/>
    <path class="st0" d="M1175,203.2h0s0,0,0,0l-.7-78.9h0s394.9-3.5,394.9-3.5h0s0,0,0,0l.7,78.9h0s-394.9,3.5-394.9,3.5ZM1174.3,124.3l.7,78.8,394.9-3.4-.7-78.8s-394.9,3.4-394.9,3.4Z"/>
    <path class="st0" d="M1175.6,281.8h0s0,0,0,0l-.6-78.9h0s394.9-3.2,394.9-3.2h0s0,0,0,0l.6,78.9h0s-394.9,3.2-394.9,3.2h0ZM1175,202.9l.6,78.8,394.9-3.2-.6-78.8-394.9,3.2h0Z"/>
  </g>
  <path class="st0" d="M423,213.1h0c-2.6,0-5.4-.2-8.2-.4h0s-.7-7.1-.7-7.1c-.2,0-.4,0-.6,0-.7,0-1.4-.2-2.1-.3-3.1-.5-6.2-1.2-9.4-2.2l-3.5,6.2h0c-2.6-.9-5.2-1.8-7.6-2.9h0s0,0,0,0l1.5-6.9c-3.8-1.8-7.4-3.8-10.7-6.2l-5.2,4.8h0c-2.2-1.6-4.4-3.4-6.4-5.2h0s0,0,0,0l3.6-6.1c-2.9-2.8-5.7-5.8-8.2-9.2l-6.5,2.9h0c-1.5-2.1-3-4.4-4.4-6.9h0s0,0,0,0l5.3-4.7c-2-3.7-3.7-7.5-5-11.3l-7,.8h0c-.8-2.6-1.5-5.3-2.1-7.9h0s0,0,0,0l6.5-2.8c-.8-4-1.2-8.1-1.3-12.3l-6.9-1.5h0c0-2.7.2-5.5.4-8.2h0s0,0,0,0l7.1-.7c0-.1,0-.3,0-.4,0-.7.2-1.5.3-2.2.5-3.1,1.2-6.3,2.2-9.4l-6.2-3.5h0c.8-2.6,1.8-5.2,2.9-7.6h0s0,0,0,0l6.9,1.5c1.8-3.8,3.9-7.4,6.2-10.7l-4.7-5.2h0c1.6-2.2,3.3-4.3,5.2-6.4h0s0,0,0,0l6.1,3.6c2.7-2.9,5.8-5.7,9.2-8.2l-2.9-6.5h0c2.2-1.6,4.5-3.1,6.9-4.5h0s0,0,0,0l4.7,5.3c3.6-2,7.4-3.7,11.3-5l-.8-7h0c2.6-.8,5.2-1.5,7.9-2.1h0s0,0,0,0l2.8,6.5c4-.8,8.1-1.2,12.3-1.3l1.5-6.9h0c2.6,0,5.4.2,8.2.4h0s.7,7.1.7,7.1c.2,0,.4,0,.5,0,.7,0,1.4.2,2.1.3,3.1.5,6.3,1.2,9.4,2.2l3.5-6.2h0c2.5.8,5.1,1.8,7.6,2.9h0s0,0,0,0l-1.5,6.9c3.8,1.8,7.4,3.8,10.7,6.2l5.2-4.7h0c2.2,1.6,4.4,3.4,6.4,5.2h0s0,0,0,0l-3.6,6.1c3,2.8,5.7,5.9,8.2,9.2l6.5-2.9h0c1.6,2.2,3.1,4.5,4.4,6.9h0s0,0,0,0l-5.3,4.7c2,3.6,3.7,7.4,5,11.3l7-.8h0c.8,2.6,1.6,5.3,2.1,7.9h0s0,0,0,0l-6.5,2.8c.8,4,1.2,8.1,1.2,12.3l6.9,1.5h0c0,2.7-.2,5.5-.4,8.2h0s0,0,0,0l-7.1.7v.3c-.1.8-.2,1.6-.4,2.4-.5,3.1-1.3,6.3-2.2,9.5l6.2,3.5h0c-.8,2.5-1.8,5.1-2.9,7.6h0s0,0,0,0l-6.9-1.5c-1.8,3.8-3.9,7.4-6.2,10.7l4.7,5.2h0c-1.6,2.2-3.4,4.4-5.2,6.3h0s0,0,0,0l-6.1-3.6c-2.8,2.9-5.9,5.7-9.2,8.2l2.9,6.5h0c-2.2,1.6-4.5,3.1-6.9,4.5h0s0,0,0,0l-4.7-5.3c-3.7,2-7.5,3.7-11.3,5l.8,7h0c-2.6.8-5.2,1.5-7.9,2.1h0s0,0,0,0l-2.8-6.5c-3.9.8-8.1,1.2-12.3,1.3l-1.5,7h0s0,0,0,0ZM414.9,212.7c2.8.3,5.5.4,8.1.4l1.5-7h0c4.2,0,8.4-.5,12.3-1.3h0s0,0,0,0l2.8,6.5c2.7-.6,5.3-1.3,7.9-2.1l-.8-7h0c3.8-1.3,7.6-3,11.3-5h0s0,0,0,0l4.7,5.3c2.4-1.4,4.7-2.9,6.8-4.4l-2.9-6.5h0c3.3-2.5,6.4-5.3,9.2-8.3h0s0,0,0,0l6.1,3.6c1.8-2,3.5-4.1,5.1-6.3l-4.7-5.2h0c2.3-3.3,4.4-6.9,6.2-10.7h0s0,0,0,0l6.9,1.5c1.1-2.6,2.1-5.1,2.9-7.6l-6.2-3.5h0c1-3.2,1.7-6.3,2.2-9.5.1-.8.2-1.6.3-2.4v-.3h0l7.1-.7c.3-2.7.4-5.5.4-8.1l-6.9-1.5h0c0-4.2-.5-8.4-1.3-12.3h0s0,0,0,0l6.5-2.8c-.6-2.6-1.3-5.3-2.1-7.9l-7,.8h0c-1.3-3.9-3-7.7-5-11.3h0s0,0,0,0l5.3-4.7c-1.4-2.4-2.9-4.7-4.4-6.9l-6.5,2.9h0c-2.5-3.3-5.3-6.4-8.3-9.2h0s0,0,0,0l3.6-6.1c-2-1.8-4.1-3.5-6.3-5.2l-5.2,4.7h0c-3.3-2.3-6.9-4.4-10.7-6.2h0s0,0,0,0l1.5-6.9c-2.5-1.1-5.1-2.1-7.6-2.9l-3.5,6.2h0c-3.2-1-6.3-1.7-9.5-2.2-.7-.1-1.4-.2-2.1-.3-.2,0-.4,0-.5,0h0s-.7-7.1-.7-7.1c-2.8-.3-5.5-.4-8.1-.4l-1.5,6.9h0c-4.2,0-8.3.5-12.3,1.3h0s0,0,0,0l-2.8-6.5c-2.7.6-5.3,1.3-7.9,2.1l.8,7h0c-3.8,1.3-7.7,3-11.3,5h0s0,0,0,0l-4.7-5.3c-2.3,1.4-4.6,2.9-6.8,4.4l2.9,6.5h0c-3.4,2.6-6.5,5.3-9.2,8.3h0s0,0,0,0l-6.1-3.6c-1.8,2.1-3.6,4.2-5.1,6.3l4.7,5.2h0c-2.3,3.3-4.4,6.9-6.2,10.7h0s0,0,0,0l-6.9-1.5c-1.1,2.5-2.1,5-2.9,7.6l6.2,3.5h0c-1,3.2-1.7,6.4-2.2,9.5-.1.7-.2,1.5-.3,2.2,0,.2,0,.3,0,.5h0s0,0,0,0l-7.1.7c-.3,2.7-.4,5.4-.4,8.1l6.9,1.5h0c0,4.2.5,8.4,1.3,12.3h0s0,0,0,0l-6.5,2.8c.6,2.6,1.3,5.3,2.1,7.9l7-.8h0c1.3,3.8,3,7.6,5,11.3h0s0,0,0,0l-5.3,4.7c1.4,2.4,2.9,4.7,4.4,6.8l6.5-2.9h0c2.5,3.4,5.3,6.5,8.3,9.2h0s0,0,0,0l-3.6,6.1c2,1.8,4.1,3.5,6.3,5.1l5.2-4.8h0c3.3,2.4,7,4.4,10.7,6.2h0s0,0,0,0l-1.5,6.9c2.5,1.1,5,2.1,7.6,2.9l3.5-6.2h0c3.2,1,6.3,1.7,9.5,2.2.7.1,1.4.2,2.1.3.2,0,.4,0,.6,0h0s.7,7.1.7,7.1h0ZM423.2,151.2c-.9,0-1.9,0-2.8-.2-4.6-.7-8.6-3.2-11.3-7-2.7-3.8-3.8-8.4-3.1-13,.7-4.6,3.2-8.6,7-11.3,3.8-2.7,8.4-3.8,13-3.1,4.6.8,8.6,3.2,11.3,7,2.7,3.8,3.8,8.4,3.1,13h0s0,0,0,0c-.4,2.3-1.2,4.5-2.4,6.5-1.2,1.9-2.7,3.5-4.6,4.9-3,2.2-6.5,3.3-10.1,3.3h0ZM423.2,116.4c-8.4,0-15.8,6.1-17.2,14.6-1.5,9.5,4.9,18.4,14.4,20,9.5,1.5,18.4-4.9,20-14.4h0c1.5-9.5-4.9-18.4-14.4-20-.9-.2-1.9-.2-2.8-.2h0Z"/>
  <path class="st0" d="M1572.5,465.7c-1.7,0-3.4,0-5-.2-1.1,0-2.2-.2-3.5-.3h0s-4.4-21.1-4.4-21.1c-1.3-.3-2.5-.7-3.7-1.1l-15.6,14.9h0c-3.4-1.8-6.7-3.9-9.8-6.2h0s0,0,0,0l6.7-20.4c-1-1-1.8-1.9-2.6-2.8l-20.9,5.1h0c-2-3.2-3.9-6.7-5.4-10.3h0s0,0,0,0l16.1-14.3c-.3-1.3-.6-2.5-.9-3.7l-20.6-6.1h0c-.1-2.8,0-5.5.1-8.2,0-1.1.2-2.3.3-3.5h0s0,0,0,0l21.1-4.4c.3-1.3.7-2.5,1.1-3.7l-14.9-15.6h0c1.8-3.4,3.9-6.7,6.2-9.8h0s0,0,0,0l20.4,6.7c1-1,1.9-1.8,2.8-2.6l-5.1-20.9h0c3.2-2.1,6.7-3.9,10.3-5.4h0s0,0,0,0l14.3,16c1.3-.3,2.5-.6,3.7-.9l6.1-20.6h0c2.9-.1,5.6,0,8.1.1,1,0,2.1.2,3.5.3h0s4.4,21.1,4.4,21.1c1.2.3,2.5.7,3.7,1.1l15.6-14.9h0c3.4,1.8,6.7,3.9,9.8,6.2h0s0,0,0,0l-6.7,20.4c1,1,1.8,1.9,2.6,2.8l20.9-5.1h0c2,3.2,3.9,6.7,5.4,10.3h0s0,0,0,0l-16,14.3c.4,1.4.6,2.6.9,3.8l20.6,6.1h0c.1,2.8,0,5.5-.1,8.1,0,1.1-.2,2.2-.3,3.5h0s0,0,0,0l-21.1,4.4c-.3,1.2-.7,2.5-1.1,3.7l14.9,15.6h0c-1.8,3.4-3.9,6.7-6.2,9.8h0s0,0,0,0l-20.4-6.7c-1,1-1.9,1.8-2.8,2.6l5.1,20.9h0c-3.2,2-6.7,3.9-10.3,5.4h0s0,0,0,0l-14.3-16c-1.3.3-2.5.6-3.7.9l-6.1,20.6h0c-1.1,0-2.1,0-3.2,0h0s0,0,0,0ZM1564,465.2c1.2.2,2.4.3,3.5.3,2.6.2,5.2.2,8.1.1l6.1-20.6h0c1.2-.2,2.4-.5,3.8-.9h0s0,0,0,0l14.3,16c3.6-1.5,7.1-3.4,10.3-5.4l-5.1-20.9h0c.9-.8,1.8-1.6,2.8-2.6h0s0,0,0,0l20.4,6.7c2.3-3.1,4.4-6.4,6.2-9.8l-14.9-15.6h0c.4-1.2.8-2.4,1.1-3.7h0s0,0,0,0l21.1-4.4c.1-1.2.3-2.3.3-3.5.2-2.6.2-5.4.1-8.1l-20.6-6.1h0c-.2-1.1-.5-2.3-.9-3.8h0s0,0,0,0l16-14.3c-1.5-3.6-3.3-7.1-5.4-10.3l-20.9,5.1h0c-.8-.9-1.7-1.9-2.6-2.8h0s0,0,0,0l6.7-20.4c-3.1-2.4-6.4-4.5-9.8-6.2l-15.6,14.8h0c-1.2-.4-2.4-.8-3.7-1.1h0s0,0,0,0l-4.4-21.1c-1.3-.2-2.4-.3-3.5-.3-2.6-.2-5.2-.2-8.1-.1l-6.1,20.6h0c-1.2.2-2.5.5-3.8.9h0s0,0,0,0l-14.3-16c-3.6,1.5-7,3.3-10.3,5.4l5.1,20.9h0c-.9.8-1.8,1.6-2.8,2.6h0s0,0,0,0l-20.4-6.7c-2.3,3.1-4.4,6.4-6.2,9.8l14.9,15.6h0c-.4,1.2-.8,2.4-1.1,3.7h0s0,0,0,0l-21.1,4.4c-.1,1.2-.3,2.4-.3,3.5-.2,2.6-.2,5.3-.1,8.1l20.6,6.1h0c.2,1.2.5,2.5.9,3.8h0s0,0,0,0l-16,14.3c1.5,3.6,3.4,7.1,5.4,10.3l20.9-5.1h0c.8.9,1.6,1.8,2.6,2.8h0s0,0,0,0l-6.7,20.4c3.1,2.3,6.4,4.4,9.8,6.2l15.6-14.9h0c1.2.4,2.4.8,3.7,1.1h0s0,0,0,0l4.4,21.1h0ZM1572.7,424.9c-.7,0-1.4,0-2.2,0h0c-3.9-.3-7.6-1.3-11-3.1-3.3-1.7-6.2-4-8.7-6.8s-4.3-6.1-5.5-9.6c-1.2-3.7-1.7-7.5-1.4-11.4.3-3.9,1.3-7.6,3.1-11,1.7-3.3,4-6.2,6.8-8.7s6.1-4.3,9.6-5.5c3.7-1.2,7.5-1.7,11.4-1.4,3.9.3,7.6,1.3,11,3.1,3.3,1.7,6.3,4,8.7,6.8s4.3,6.1,5.5,9.6c1.2,3.7,1.7,7.5,1.4,11.4-.3,3.9-1.3,7.6-3.1,11-1.7,3.3-4,6.2-6.8,8.7-2.8,2.5-6.1,4.3-9.6,5.5-3,1-6.1,1.5-9.2,1.5h0ZM1572.6,367.2c-6.9,0-13.5,2.4-18.8,7-5.8,5-9.4,12-9.9,19.7-.6,7.7,1.9,15.1,6.9,21s12,9.4,19.7,9.9h0c.7,0,1.5,0,2.2,0,6.9,0,13.5-2.4,18.8-7,5.8-5,9.4-12,9.9-19.7,1.2-15.9-10.8-29.7-26.7-30.9-.7,0-1.4,0-2.2,0h0Z"/>
  <path class="st0" d="M769.7,526.5c-3.8,0-7.6-.2-11.5-.5h0s-6.5-22.6-6.5-22.6c-.3,0-.5,0-.8-.1-.9-.1-1.8-.3-2.7-.5-3.2-.6-6.6-1.5-10-2.5l-15.7,17.4h0c-9.8-3.8-19-8.7-27.5-14.7h0s0,0,0,0l5.7-22.7c-3.5-2.9-6.9-6.1-10.1-9.5l-22.3,7.2h0c-6.5-8.1-12.1-17-16.5-26.5h0s0,0,0,0l16.3-16.8c-1.6-4.3-3-8.8-4-13.3l-23-4.9h0c-1.6-10.2-1.9-20.7-1-31.2h0s0,0,0,0l22.5-6.5c0-.2,0-.4,0-.6.2-1,.3-1.9.5-2.9.7-3.3,1.5-6.6,2.5-10l-17.4-15.7h0c3.8-9.8,8.7-19,14.7-27.6h0s0,0,0,0l22.7,5.7c2.9-3.5,6.1-6.9,9.5-10.1l-7.2-22.3h0c8.1-6.5,17-12.1,26.5-16.5h0s0,0,0,0l16.8,16.3c4.3-1.6,8.8-3,13.3-4l4.9-23h0c10.2-1.6,20.7-1.9,31.2-1h0s6.5,22.5,6.5,22.5c.3,0,.6.1,1,.2.8.1,1.7.3,2.5.5,3.3.7,6.6,1.5,10,2.5l15.7-17.4h0c9.8,3.8,19,8.7,27.5,14.7h0s0,0,0,0l-5.7,22.7c3.5,2.9,6.9,6.1,10.1,9.5l22.3-7.2h0c6.5,8.1,12.1,17,16.5,26.5h0s0,0,0,0l-16.3,16.8c1.6,4.3,3,8.8,4.1,13.3l22.9,4.9h0c1.6,10.2,1.9,20.7,1,31.2h0s0,0,0,0l-22.5,6.5c0,.2,0,.5-.1.7-.2.9-.3,1.9-.5,2.8-.6,3.2-1.5,6.5-2.5,10l17.4,15.7h0c-3.8,9.8-8.7,19.1-14.7,27.6h0s0,0,0,0l-22.7-5.7c-2.9,3.5-6.1,6.9-9.5,10.1l7.2,22.3h0c-8.1,6.5-17,12.1-26.5,16.5h0s0,0,0,0l-16.8-16.3c-4.2,1.6-8.6,2.9-13.3,4l-4.9,23h0c-6.5,1-13.1,1.5-19.7,1.5h0ZM758.2,526c10.5.9,21,.6,31.2-1l4.9-23h0c4.6-1.1,9.1-2.5,13.3-4.1h0s0,0,0,0l16.8,16.3c9.5-4.4,18.4-10,26.5-16.5l-7.2-22.3h0c3.4-3.2,6.6-6.7,9.5-10.2h0s0,0,0,0l22.7,5.7c5.9-8.5,10.9-17.8,14.6-27.5l-17.4-15.7h0c1.1-3.6,1.9-6.8,2.5-10,.2-.9.3-1.9.5-2.8,0-.2,0-.5.1-.7h0s0,0,0,0l22.5-6.5c.9-10.4.6-20.9-1-31.1l-22.9-4.9h0c-1.1-4.5-2.4-9-4.1-13.3h0s0,0,0,0l16.3-16.8c-4.4-9.4-10-18.3-16.5-26.5l-22.3,7.2h0c-3.2-3.4-6.6-6.6-10.1-9.5h0s0,0,0,0l5.7-22.7c-8.5-6-17.8-10.9-27.5-14.6l-15.7,17.4h0c-3.4-1-6.7-1.8-10-2.5-.9-.2-1.7-.3-2.5-.5-.3,0-.7-.1-1-.2h0s-6.5-22.5-6.5-22.5c-10.5-.9-20.9-.6-31.2,1l-4.9,23h0c-4.5,1.1-9,2.4-13.3,4.1h0s0,0,0,0l-16.8-16.3c-9.4,4.4-18.3,10-26.5,16.5l7.2,22.3h0c-3.4,3.2-6.6,6.6-9.5,10.1h0s0,0,0,0l-22.7-5.7c-6,8.5-10.9,17.8-14.6,27.5l17.4,15.7h0c-1,3.4-1.8,6.7-2.5,10-.2,1-.4,2-.5,2.9,0,.2,0,.4,0,.6h0s0,0,0,0l-22.5,6.5c-.9,10.5-.6,21,1,31.2l22.9,4.9h0c1.1,4.5,2.4,9,4.1,13.3h0s0,0,0,0l-16.3,16.8c4.4,9.4,10,18.4,16.5,26.5l22.3-7.2h0c3.2,3.4,6.6,6.6,10.1,9.5h0s0,0,0,0l-5.7,22.7c8.5,5.9,17.8,10.9,27.5,14.6l15.7-17.4h0c3.4,1,6.8,1.9,10,2.5.9.2,1.8.3,2.7.5.3,0,.5,0,.8.1h0s6.5,22.6,6.5,22.6h0ZM769.4,415.1c-1.2,0-2.4-.1-3.7-.4-2.5-.5-4.7-1.4-6.8-2.8-2-1.3-3.7-3-5-5.1s-2.3-4.2-2.7-6.6c-.5-2.4-.5-4.9,0-7.4s1.4-4.7,2.8-6.8c1.3-2,3-3.7,5.1-5,2-1.3,4.2-2.3,6.6-2.7,2.4-.5,4.9-.5,7.4,0,2.5.5,4.7,1.4,6.8,2.8,2,1.3,3.7,3,5,5.1,1.3,2,2.3,4.2,2.7,6.6.5,2.4.5,4.9,0,7.4-.5,2.5-1.4,4.7-2.8,6.8-1.3,2-3,3.7-5.1,5-2,1.3-4.2,2.3-6.6,2.7-1.2.3-2.5.4-3.7.4h0ZM769.4,378c-3.6,0-7.2,1.1-10.2,3.1-4.1,2.7-6.9,6.9-7.9,11.8s0,9.8,2.8,13.9c2.7,4.1,6.9,6.9,11.8,7.9,4.9,1,9.8,0,13.9-2.8,4.1-2.7,6.9-6.9,7.9-11.8h0s0,0,0,0c2-10-4.5-19.8-14.6-21.8-1.2-.2-2.4-.4-3.7-.4h0Z"/>
</svg>